<?xml version="1.0" encoding="UTF-8"?>
<!--Generator: Apple Native CoreSVG 149-->
<!DOCTYPE svg
PUBLIC "-//W3C//DTD SVG 1.1//EN"
       "http://www.w3.org/Graphics/SVG/1.1/DTD/svg11.dtd">
<svg version="1.1" xmlns="http://www.w3.org/2000/svg" xmlns:xlink="http://www.w3.org/1999/xlink" width="3300" height="2200">
 <!--glyph: "", point size: 100.0, font version: "17.0d9e1", template writer version: "59"-->
 <g id="Notes">
  <rect height="2200" id="artboard" style="fill:white;opacity:1" width="3300" x="0" y="0"/>
  <line style="fill:none;stroke:black;opacity:1;stroke-width:0.5;" x1="263" x2="3036" y1="292" y2="292"/>
  <text style="stroke:none;fill:black;font-family:sans-serif;font-size:13;font-weight:bold;" transform="matrix(1 0 0 1 263 322)">Weight/Scale Variations</text>
  <text style="stroke:none;fill:black;font-family:sans-serif;font-size:13;text-anchor:middle;" transform="matrix(1 0 0 1 559.711 322)">Ultralight</text>
  <text style="stroke:none;fill:black;font-family:sans-serif;font-size:13;text-anchor:middle;" transform="matrix(1 0 0 1 856.422 322)">Thin</text>
  <text style="stroke:none;fill:black;font-family:sans-serif;font-size:13;text-anchor:middle;" transform="matrix(1 0 0 1 1153.13 322)">Light</text>
  <text style="stroke:none;fill:black;font-family:sans-serif;font-size:13;text-anchor:middle;" transform="matrix(1 0 0 1 1449.84 322)">Regular</text>
  <text style="stroke:none;fill:black;font-family:sans-serif;font-size:13;text-anchor:middle;" transform="matrix(1 0 0 1 1746.56 322)">Medium</text>
  <text style="stroke:none;fill:black;font-family:sans-serif;font-size:13;text-anchor:middle;" transform="matrix(1 0 0 1 2043.27 322)">Semibold</text>
  <text style="stroke:none;fill:black;font-family:sans-serif;font-size:13;text-anchor:middle;" transform="matrix(1 0 0 1 2339.98 322)">Bold</text>
  <text style="stroke:none;fill:black;font-family:sans-serif;font-size:13;text-anchor:middle;" transform="matrix(1 0 0 1 2636.69 322)">Heavy</text>
  <text style="stroke:none;fill:black;font-family:sans-serif;font-size:13;text-anchor:middle;" transform="matrix(1 0 0 1 2933.4 322)">Black</text>
  <line style="fill:none;stroke:black;opacity:1;stroke-width:0.5;" x1="263" x2="3036" y1="1903" y2="1903"/>
  <g transform="matrix(1 0 0 1 263 1933)">
   <path d="M9.24805 0.830078Q10.8691 0.830078 12.2949 0.214844Q13.7207-0.400391 14.8096-1.49414Q15.8984-2.58789 16.5186-4.01367Q17.1387-5.43945 17.1387-7.05078Q17.1387-8.66211 16.5186-10.0879Q15.8984-11.5137 14.8047-12.6074Q13.7109-13.7012 12.2852-14.3164Q10.8594-14.9316 9.23828-14.9316Q7.62695-14.9316 6.20117-14.3164Q4.77539-13.7012 3.69141-12.6074Q2.60742-11.5137 1.9873-10.0879Q1.36719-8.66211 1.36719-7.05078Q1.36719-5.43945 1.9873-4.01367Q2.60742-2.58789 3.69629-1.49414Q4.78516-0.400391 6.21094 0.214844Q7.63672 0.830078 9.24805 0.830078ZM9.24805-0.654297Q7.91992-0.654297 6.7627-1.14746Q5.60547-1.64062 4.73145-2.51953Q3.85742-3.39844 3.36426-4.56055Q2.87109-5.72266 2.87109-7.05078Q2.87109-8.37891 3.35938-9.54102Q3.84766-10.7031 4.72168-11.582Q5.5957-12.4609 6.75293-12.9541Q7.91016-13.4473 9.23828-13.4473Q10.5762-13.4473 11.7334-12.9541Q12.8906-12.4609 13.7695-11.582Q14.6484-10.7031 15.1465-9.54102Q15.6445-8.37891 15.6445-7.05078Q15.6445-5.72266 15.1514-4.56055Q14.6582-3.39844 13.7842-2.51953Q12.9102-1.64062 11.748-1.14746Q10.5859-0.654297 9.24805-0.654297ZM5.83984-7.04102Q5.83984-6.71875 6.04492-6.51855Q6.25-6.31836 6.5918-6.31836L8.50586-6.31836L8.50586-4.39453Q8.50586-4.0625 8.70605-3.85742Q8.90625-3.65234 9.22852-3.65234Q9.56055-3.65234 9.76562-3.85742Q9.9707-4.0625 9.9707-4.39453L9.9707-6.31836L11.8945-6.31836Q12.2266-6.31836 12.4316-6.51855Q12.6367-6.71875 12.6367-7.04102Q12.6367-7.37305 12.4316-7.57812Q12.2266-7.7832 11.8945-7.7832L9.9707-7.7832L9.9707-9.69727Q9.9707-10.0391 9.76562-10.2441Q9.56055-10.4492 9.22852-10.4492Q8.90625-10.4492 8.70605-10.2441Q8.50586-10.0391 8.50586-9.69727L8.50586-7.7832L6.5918-7.7832Q6.25-7.7832 6.04492-7.57812Q5.83984-7.37305 5.83984-7.04102Z"/>
  </g>
  <g transform="matrix(1 0 0 1 281.867 1933)">
   <path d="M11.709 2.91016Q13.75 2.91016 15.5518 2.12891Q17.3535 1.34766 18.7305-0.0292969Q20.1074-1.40625 20.8887-3.20801Q21.6699-5.00977 21.6699-7.05078Q21.6699-9.0918 20.8887-10.8936Q20.1074-12.6953 18.7305-14.0723Q17.3535-15.4492 15.5469-16.2305Q13.7402-17.0117 11.6992-17.0117Q9.6582-17.0117 7.85645-16.2305Q6.05469-15.4492 4.68262-14.0723Q3.31055-12.6953 2.5293-10.8936Q1.74805-9.0918 1.74805-7.05078Q1.74805-5.00977 2.5293-3.20801Q3.31055-1.40625 4.6875-0.0292969Q6.06445 1.34766 7.86621 2.12891Q9.66797 2.91016 11.709 2.91016ZM11.709 1.25Q9.98047 1.25 8.47656 0.605469Q6.97266-0.0390625 5.83496-1.17676Q4.69727-2.31445 4.05762-3.81836Q3.41797-5.32227 3.41797-7.05078Q3.41797-8.7793 4.05762-10.2832Q4.69727-11.7871 5.83008-12.9297Q6.96289-14.0723 8.4668-14.7119Q9.9707-15.3516 11.6992-15.3516Q13.4277-15.3516 14.9316-14.7119Q16.4355-14.0723 17.5781-12.9297Q18.7207-11.7871 19.3652-10.2832Q20.0098-8.7793 20.0098-7.05078Q20.0098-5.32227 19.3701-3.81836Q18.7305-2.31445 17.5928-1.17676Q16.4551-0.0390625 14.9463 0.605469Q13.4375 1.25 11.709 1.25ZM7.39258-7.04102Q7.39258-6.68945 7.62695-6.46484Q7.86133-6.24023 8.23242-6.24023L10.8789-6.24023L10.8789-3.57422Q10.8789-3.21289 11.1035-2.9834Q11.3281-2.75391 11.6797-2.75391Q12.0508-2.75391 12.2852-2.9834Q12.5195-3.21289 12.5195-3.57422L12.5195-6.24023L15.1758-6.24023Q15.5371-6.24023 15.7715-6.46484Q16.0059-6.68945 16.0059-7.04102Q16.0059-7.41211 15.7715-7.6416Q15.5371-7.87109 15.1758-7.87109L12.5195-7.87109L12.5195-10.5176Q12.5195-10.8984 12.2852-11.1279Q12.0508-11.3574 11.6797-11.3574Q11.3281-11.3574 11.1035-11.1279Q10.8789-10.8984 10.8789-10.5176L10.8789-7.87109L8.23242-7.87109Q7.85156-7.87109 7.62207-7.6416Q7.39258-7.41211 7.39258-7.04102Z"/>
  </g>
  <g transform="matrix(1 0 0 1 305.646 1933)">
   <path d="M14.9707 5.66406Q17.0605 5.66406 18.96 5.01465Q20.8594 4.36523 22.4512 3.19336Q24.043 2.02148 25.2197 0.429688Q26.3965-1.16211 27.0459-3.06641Q27.6953-4.9707 27.6953-7.05078Q27.6953-9.14062 27.0459-11.04Q26.3965-12.9395 25.2197-14.5312Q24.043-16.123 22.4512-17.2998Q20.8594-18.4766 18.9551-19.126Q17.0508-19.7754 14.9609-19.7754Q12.8711-19.7754 10.9717-19.126Q9.07227-18.4766 7.48535-17.2998Q5.89844-16.123 4.72168-14.5312Q3.54492-12.9395 2.90039-11.04Q2.25586-9.14062 2.25586-7.05078Q2.25586-4.9707 2.90527-3.06641Q3.55469-1.16211 4.72656 0.429688Q5.89844 2.02148 7.49023 3.19336Q9.08203 4.36523 10.9814 5.01465Q12.8809 5.66406 14.9707 5.66406ZM14.9707 3.84766Q13.1641 3.84766 11.5283 3.2959Q9.89258 2.74414 8.53516 1.74805Q7.17773 0.751953 6.17676-0.610352Q5.17578-1.97266 4.62891-3.6084Q4.08203-5.24414 4.08203-7.05078Q4.08203-8.86719 4.62891-10.5029Q5.17578-12.1387 6.17188-13.501Q7.16797-14.8633 8.52539-15.8594Q9.88281-16.8555 11.5186-17.4023Q13.1543-17.9492 14.9609-17.9492Q16.7773-17.9492 18.4131-17.4023Q20.0488-16.8555 21.4111-15.8594Q22.7734-14.8633 23.7695-13.501Q24.7656-12.1387 25.3174-10.5029Q25.8691-8.86719 25.8691-7.05078Q25.8789-5.24414 25.332-3.6084Q24.7852-1.97266 23.7842-0.610352Q22.7832 0.751953 21.4209 1.74805Q20.0586 2.74414 18.4229 3.2959Q16.7871 3.84766 14.9707 3.84766ZM9.45312-7.04102Q9.45312-6.66016 9.71191-6.41113Q9.9707-6.16211 10.3711-6.16211L14.0625-6.16211L14.0625-2.46094Q14.0625-2.06055 14.3115-1.80664Q14.5605-1.55273 14.9414-1.55273Q15.3516-1.55273 15.6055-1.80664Q15.8594-2.06055 15.8594-2.46094L15.8594-6.16211L19.5605-6.16211Q19.9609-6.16211 20.2148-6.41113Q20.4688-6.66016 20.4688-7.04102Q20.4688-7.45117 20.2148-7.70508Q19.9609-7.95898 19.5605-7.95898L15.8594-7.95898L15.8594-11.6504Q15.8594-12.0605 15.6055-12.3145Q15.3516-12.5684 14.9414-12.5684Q14.5605-12.5684 14.3115-12.3096Q14.0625-12.0508 14.0625-11.6504L14.0625-7.95898L10.3711-7.95898Q9.96094-7.95898 9.70703-7.70508Q9.45312-7.45117 9.45312-7.04102Z"/>
  </g>
  <text style="stroke:none;fill:black;font-family:sans-serif;font-size:13;font-weight:bold;" transform="matrix(1 0 0 1 263 1953)">Design Variations</text>
  <text style="stroke:none;fill:black;font-family:sans-serif;font-size:13;" transform="matrix(1 0 0 1 263 1971)">Symbols are supported in up to nine weights and three scales.</text>
  <text style="stroke:none;fill:black;font-family:sans-serif;font-size:13;" transform="matrix(1 0 0 1 263 1989)">For optimal layout with text and other symbols, vertically align</text>
  <text style="stroke:none;fill:black;font-family:sans-serif;font-size:13;" transform="matrix(1 0 0 1 263 2007)">symbols with the adjacent text.</text>
  <line style="fill:none;stroke:#00AEEF;stroke-width:0.5;opacity:1.0;" x1="776" x2="776" y1="1919" y2="1933"/>
  <g transform="matrix(1 0 0 1 776 1933)">
   <path d="M3.31055 0.15625Q3.70117 0.15625 3.91602-0.00976562Q4.13086-0.175781 4.26758-0.585938L5.52734-4.0332L11.2891-4.0332L12.5488-0.585938Q12.6855-0.175781 12.9004-0.00976562Q13.1152 0.15625 13.4961 0.15625Q13.8867 0.15625 14.1162-0.0585938Q14.3457-0.273438 14.3457-0.644531Q14.3457-0.869141 14.2383-1.17188L9.6582-13.3691Q9.48242-13.8184 9.17969-14.043Q8.87695-14.2676 8.4082-14.2676Q7.5-14.2676 7.17773-13.3789L2.59766-1.16211Q2.49023-0.859375 2.49023-0.634766Q2.49023-0.263672 2.70996-0.0537109Q2.92969 0.15625 3.31055 0.15625ZM6.00586-5.51758L8.37891-12.0898L8.42773-12.0898L10.8008-5.51758Z"/>
  </g>
  <line style="fill:none;stroke:#00AEEF;stroke-width:0.5;opacity:1.0;" x1="793.197" x2="793.197" y1="1919" y2="1933"/>
  <text style="stroke:none;fill:black;font-family:sans-serif;font-size:13;font-weight:bold;" transform="matrix(1 0 0 1 776 1953)">Margins</text>
  <text style="stroke:none;fill:black;font-family:sans-serif;font-size:13;" transform="matrix(1 0 0 1 776 1971)">Leading and trailing margins on the left and right side of each symbol</text>
  <text style="stroke:none;fill:black;font-family:sans-serif;font-size:13;" transform="matrix(1 0 0 1 776 1989)">can be adjusted by modifying the x-location of the margin guidelines.</text>
  <text style="stroke:none;fill:black;font-family:sans-serif;font-size:13;" transform="matrix(1 0 0 1 776 2007)">Modifications are automatically applied proportionally to all</text>
  <text style="stroke:none;fill:black;font-family:sans-serif;font-size:13;" transform="matrix(1 0 0 1 776 2025)">scales and weights.</text>
  <g transform="matrix(1 0 0 1 1289 1933)">
   <path d="M2.8418 1.86523L4.54102 3.57422Q5.18555 4.22852 5.90332 4.17969Q6.62109 4.13086 7.31445 3.35938L18.0078-8.42773L17.041-9.4043L6.42578 2.27539Q6.16211 2.57812 5.89355 2.61719Q5.625 2.65625 5.27344 2.30469L4.10156 1.14258Q3.75 0.791016 3.79395 0.522461Q3.83789 0.253906 4.14062-0.0195312L15.6152-10.8203L14.6387-11.7871L3.04688-0.898438Q2.30469-0.214844 2.25098 0.498047Q2.19727 1.21094 2.8418 1.86523ZM9.25781-16.3281Q8.94531-16.0254 8.90625-15.6348Q8.86719-15.2441 9.04297-14.9512Q9.21875-14.6777 9.55566-14.541Q9.89258-14.4043 10.3809-14.5215Q11.4746-14.7754 12.5977-14.7314Q13.7207-14.6875 14.7949-13.9844L14.209-12.5293Q13.9551-11.9043 14.0674-11.4404Q14.1797-10.9766 14.5801-10.5664L16.875-8.25195Q17.2363-7.88086 17.5781-7.82227Q17.9199-7.76367 18.3398-7.8418L19.4043-8.03711L20.0684-7.36328L20.0293-6.80664Q20-6.43555 20.1221-6.12305Q20.2441-5.81055 20.6055-5.44922L21.3672-4.70703Q21.7285-4.3457 22.1533-4.33105Q22.5781-4.31641 22.9297-4.66797L25.8398-7.58789Q26.1914-7.93945 26.1816-8.35449Q26.1719-8.76953 25.8105-9.13086L25.0391-9.89258Q24.6875-10.2539 24.3799-10.3857Q24.0723-10.5176 23.7109-10.4883L23.1348-10.4395L22.4902-11.0742L22.7344-12.1973Q22.832-12.6172 22.6953-12.9834Q22.5586-13.3496 22.1191-13.7891L19.9219-15.9766Q18.6719-17.2168 17.2607-17.8369Q15.8496-18.457 14.4189-18.4814Q12.9883-18.5059 11.665-17.959Q10.3418-17.4121 9.25781-16.3281ZM10.752-15.957Q11.6602-16.6211 12.7002-16.9043Q13.7402-17.1875 14.8047-17.085Q15.8691-16.9824 16.8701-16.5137Q17.8711-16.0449 18.7012-15.2051L21.1328-12.793Q21.3086-12.6172 21.3525-12.4512Q21.3965-12.2852 21.3379-12.0312L21.0156-10.5469L22.5195-9.0625L23.5059-9.12109Q23.6914-9.13086 23.7891-9.09668Q23.8867-9.0625 24.0332-8.91602L24.6094-8.33984L22.168-5.89844L21.5918-6.47461Q21.4453-6.62109 21.4062-6.71875Q21.3672-6.81641 21.377-7.01172L21.4453-7.98828L19.9512-9.47266L18.4277-9.21875Q18.1836-9.16992 18.042-9.2041Q17.9004-9.23828 17.7148-9.41406L15.7129-11.416Q15.5176-11.5918 15.4932-11.7529Q15.4688-11.9141 15.5859-12.1875L16.4648-14.2773Q15.293-15.3711 13.8281-15.791Q12.3633-16.2109 10.8398-15.7617Q10.7227-15.7324 10.6885-15.8057Q10.6543-15.8789 10.752-15.957Z"/>
  </g>
  <text style="stroke:none;fill:black;font-family:sans-serif;font-size:13;font-weight:bold;" transform="matrix(1 0 0 1 1289 1953)">Exporting</text>
  <text style="stroke:none;fill:black;font-family:sans-serif;font-size:13;" transform="matrix(1 0 0 1 1289 1971)">Symbols should be outlined when exporting to ensure the</text>
  <text style="stroke:none;fill:black;font-family:sans-serif;font-size:13;" transform="matrix(1 0 0 1 1289 1989)">design is preserved when submitting to Xcode.</text>
  <text id="template-version" style="stroke:none;fill:black;font-family:sans-serif;font-size:13;text-anchor:end;" transform="matrix(1 0 0 1 3036 1933)">Template v.3.0</text>
  <text style="stroke:none;fill:black;font-family:sans-serif;font-size:13;text-anchor:end;" transform="matrix(1 0 0 1 3036 1951)">Requires Xcode 13 or greater</text>
  <text id="descriptive-name" style="stroke:none;fill:black;font-family:sans-serif;font-size:13;text-anchor:end;" transform="matrix(1 0 0 1 3036 1969)">Generated from custom.ellipsis.bubble</text>
  <text style="stroke:none;fill:black;font-family:sans-serif;font-size:13;text-anchor:end;" transform="matrix(1 0 0 1 3036 1987)">Typeset at 100 points</text>
  <text style="stroke:none;fill:black;font-family:sans-serif;font-size:13;" transform="matrix(1 0 0 1 263 726)">Small</text>
  <text style="stroke:none;fill:black;font-family:sans-serif;font-size:13;" transform="matrix(1 0 0 1 263 1156)">Medium</text>
  <text style="stroke:none;fill:black;font-family:sans-serif;font-size:13;" transform="matrix(1 0 0 1 263 1586)">Large</text>
 </g>
 <g id="Guides">
  <g id="H-reference" style="fill:#27AAE1;stroke:none;" transform="matrix(1 0 0 1 339 696)">
   <path d="M0.976562 0L3.66211 0L29.3457-67.1387L30.0293-67.1387L30.0293-70.459L28.125-70.459ZM11.6699-24.4629L46.9727-24.4629L46.2402-26.709L12.4512-26.709ZM55.127 0L57.7637 0L30.6152-70.459L29.4434-70.459L29.4434-67.1387Z"/>
  </g>
  <line id="Baseline-S" style="fill:none;stroke:#27AAE1;opacity:1;stroke-width:0.5;" x1="263" x2="3036" y1="696" y2="696"/>
  <line id="Capline-S" style="fill:none;stroke:#27AAE1;opacity:1;stroke-width:0.5;" x1="263" x2="3036" y1="625.541" y2="625.541"/>
  <g id="H-reference" style="fill:#27AAE1;stroke:none;" transform="matrix(1 0 0 1 339 1126)">
   <path d="M0.976562 0L3.66211 0L29.3457-67.1387L30.0293-67.1387L30.0293-70.459L28.125-70.459ZM11.6699-24.4629L46.9727-24.4629L46.2402-26.709L12.4512-26.709ZM55.127 0L57.7637 0L30.6152-70.459L29.4434-70.459L29.4434-67.1387Z"/>
  </g>
  <line id="Baseline-M" style="fill:none;stroke:#27AAE1;opacity:1;stroke-width:0.5;" x1="263" x2="3036" y1="1126" y2="1126"/>
  <line id="Capline-M" style="fill:none;stroke:#27AAE1;opacity:1;stroke-width:0.5;" x1="263" x2="3036" y1="1055.54" y2="1055.54"/>
  <g id="H-reference" style="fill:#27AAE1;stroke:none;" transform="matrix(1 0 0 1 339 1556)">
   <path d="M0.976562 0L3.66211 0L29.3457-67.1387L30.0293-67.1387L30.0293-70.459L28.125-70.459ZM11.6699-24.4629L46.9727-24.4629L46.2402-26.709L12.4512-26.709ZM55.127 0L57.7637 0L30.6152-70.459L29.4434-70.459L29.4434-67.1387Z"/>
  </g>
  <line id="Baseline-L" style="fill:none;stroke:#27AAE1;opacity:1;stroke-width:0.5;" x1="263" x2="3036" y1="1556" y2="1556"/>
  <line id="Capline-L" style="fill:none;stroke:#27AAE1;opacity:1;stroke-width:0.5;" x1="263" x2="3036" y1="1485.54" y2="1485.54"/>
  <line id="left-margin-Regular-M" style="fill:none;stroke:#00AEEF;stroke-width:0.5;opacity:1.0;" x1="1383.27" x2="1383.27" y1="1030.78" y2="1150.12"/>
  <line id="right-margin-Regular-M" style="fill:none;stroke:#00AEEF;stroke-width:0.5;opacity:1.0;" x1="1516.42" x2="1516.42" y1="1030.78" y2="1150.12"/>
 </g>
 <g id="Symbols">
  <g id="Black-L" transform="matrix(1 0 0 1 2845.91 1556)">
   <path d="M59.879 38.8256Q63.674 38.8256 67.1662 37.1416Q70.6584 35.4577 75.2577 31.4681L96.248 13.2148L126.277 13.2148Q136.123 13.2148 143.339 9.23038Q150.556 5.24597 154.519-1.97029Q158.482-9.18659 158.482-18.9892L158.482-69.7796Q158.482-79.5823 154.519-86.7986Q150.556-94.0148 143.339-97.9992Q136.123-101.984 126.277-101.984L48.701-101.984Q38.8545-101.984 31.6382-97.9999Q24.4219-94.0161 20.4588-86.7999Q16.4957-79.5836 16.4957-69.7796L16.4957-18.9892Q16.4957-9.1853 20.6049-1.969Q24.7139 5.24725 31.6382 9.23103Q38.5624 13.2148 46.9489 13.2148L47.9929 13.2148L47.9929 25.8046Q47.9929 31.8701 51.1912 35.3478Q54.3895 38.8256 59.879 38.8256ZM64.6304 16.7888L64.6304-0.208903Q64.6304-3.79467 62.8717-5.28022Q61.1131-6.7656 58.0736-6.7656L50.2221-6.7656Q43.3649-6.7656 39.9205-10.1846Q36.4762-13.6034 36.4762-20.5103L36.4762-68.2585Q36.4762-75.1654 39.9205-78.5739Q43.3649-81.9824 50.2221-81.9824L124.755-81.9824Q131.609-81.9824 135.055-78.5739Q138.5-75.1654 138.5-68.2585L138.5-20.5103Q138.5-13.6034 135.055-10.1846Q131.609-6.7656 124.755-6.7656L94.5727-6.7656Q90.9453-6.7656 88.8592-5.81662Q86.7732-4.86751 84.037-2.21052ZM58.089-33.7704Q62.4788-33.7704 65.5623-36.8826Q68.6458-39.9946 68.6458-44.3857Q68.6458-48.7755 65.5623-51.8882Q62.4788-55.001 58.089-55.001Q53.6395-55.001 50.5559-51.8882Q47.4724-48.7755 47.4724-44.3857Q47.4724-39.9946 50.5559-36.8826Q53.6395-33.7704 58.089-33.7704ZM87.4985-33.7704Q91.8676-33.7704 94.9906-36.8826Q98.1138-39.9946 98.1138-44.3857Q98.1138-48.7755 94.9906-51.8882Q91.8676-55.001 87.4985-55.001Q83.1074-55.001 79.9844-51.8882Q76.8613-48.7755 76.8613-44.3857Q76.8613-39.9946 79.9844-36.8826Q83.1074-33.7704 87.4985-33.7704ZM116.886-33.7704Q121.336-33.7704 124.419-36.8826Q127.503-39.9946 127.503-44.3857Q127.503-48.7755 124.419-51.8882Q121.336-55.001 116.886-55.001Q112.495-55.001 109.411-51.8882Q106.328-48.7755 106.328-44.3857Q106.328-39.9946 109.411-36.8826Q112.495-33.7704 116.886-33.7704Z"/>
  </g>
  <g id="Heavy-L" transform="matrix(1 0 0 1 2549.64 1556)">
   <path d="M58.6123 37.6666Q62.0319 37.6666 65.1239 36.1085Q68.2159 34.5505 72.3463 30.9468L93.5552 12.4311L126.332 12.4311Q136.012 12.4311 143.014 8.60183Q150.016 4.77256 153.813-2.2294Q157.609-9.23143 157.609-18.8403L157.609-69.2053Q157.609-78.8142 153.813-85.8162Q150.016-92.8182 143.014-96.6474Q136.012-100.477 126.332-100.477L47.7731-100.477Q38.0927-100.477 31.0908-96.6504Q24.0888-92.8242 20.2922-85.8222Q16.4957-78.8202 16.4957-69.2053L16.4957-18.8403Q16.4957-9.22539 20.4038-2.22337Q24.3118 4.77859 31.0908 8.60484Q37.8696 12.4311 46.4345 12.4311L47.9998 12.4311L47.9998 25.9528Q47.9998 31.402 50.8464 34.5343Q53.693 37.6666 58.6123 37.6666ZM62.8082 18.2939L62.8082 0.986831Q62.8082-2.3286 61.2234-3.69773Q59.6386-5.06673 56.7545-5.06673L48.9454-5.06673Q41.4554-5.06673 37.7244-8.82002Q33.9936-12.5732 33.9936-20.0125L33.9936-68.0331Q33.9936-75.4724 37.7244-79.2107Q41.4554-82.949 48.9454-82.949L125.159-82.949Q132.631-82.949 136.368-79.2107Q140.105-75.4724 140.105-68.0331L140.105-20.0125Q140.105-12.5732 136.368-8.82002Q132.631-5.06673 125.159-5.06673L92.1992-5.06673Q88.8507-5.06673 86.8905-4.21705Q84.9305-3.36726 82.43-0.914592ZM57.4068-33.846Q61.6199-33.846 64.5825-36.8279Q67.545-39.8098 67.545-44.0289Q67.545-48.2419 64.5825-51.2267Q61.6199-54.2117 57.4068-54.2117Q53.1432-54.2117 50.1805-51.2267Q47.218-48.2419 47.218-44.0289Q47.218-39.8098 50.1805-36.8279Q53.1432-33.846 57.4068-33.846ZM87.0643-33.846Q91.2476-33.846 94.2473-36.8279Q97.2471-39.8098 97.2471-44.0289Q97.2471-48.2419 94.2473-51.2267Q91.2476-54.2117 87.0643-54.2117Q82.8452-54.2117 79.8455-51.2267Q76.8456-48.2419 76.8456-44.0289Q76.8456-39.8098 79.8455-36.8279Q82.8452-33.846 87.0643-33.846ZM116.686-33.846Q120.95-33.846 123.912-36.8279Q126.875-39.8098 126.875-44.0289Q126.875-48.2419 123.912-51.2267Q120.95-54.2117 116.686-54.2117Q112.467-54.2117 109.504-51.2267Q106.542-48.2419 106.542-44.0289Q106.542-39.8098 109.504-36.8279Q112.467-33.846 116.686-33.846Z"/>
  </g>
  <g id="Bold-L" transform="matrix(1 0 0 1 2253.54 1556)">
   <path d="M56.8786 36.1772Q59.8179 36.1772 62.4119 34.7946Q65.006 33.4119 68.5196 30.3233L90.0219 11.5055L126.393 11.5055Q135.787 11.5055 142.495 7.87279Q149.202 4.2401 152.791-2.46746Q156.379-9.17509 156.379-18.4664L156.379-68.6492Q156.379-77.9406 152.791-84.6482Q149.202-91.3557 142.495-94.9884Q135.787-98.6211 126.393-98.6211L46.4818-98.6211Q37.0881-98.6211 30.3806-94.9956Q23.6729-91.37 20.0843-84.6624Q16.4957-77.9548 16.4957-68.6492L16.4957-18.4664Q16.4957-9.16087 20.1573-2.45324Q23.8189 4.25432 30.3806 7.8799Q36.9421 11.5055 45.6058 11.5055L47.8779 11.5055L47.8779 26.1417Q47.8779 30.8036 50.2851 33.4904Q52.6923 36.1772 56.8786 36.1772ZM60.3754 20.1128L60.3754 2.43092Q60.3754-0.510143 59.0154-1.72027Q57.6554-2.93028 55.0141-2.93028L47.2696-2.93028Q39.0978-2.93028 35.0146-7.08058Q30.9315-11.2308 30.9315-19.2541L30.9315-67.8615Q30.9315-75.8848 35.0146-80.0166Q39.0978-84.1484 47.2696-84.1484L125.606-84.1484Q133.735-84.1484 137.832-80.0166Q141.929-75.8848 141.929-67.8615L141.929-19.2541Q141.929-11.2308 137.832-7.08058Q133.735-2.93028 125.606-2.93028L89.0664-2.93028Q86.0903-2.93028 84.3055-2.20177Q82.5208-1.47316 80.3099 0.710657ZM56.6898-33.9679Q60.6649-33.9679 63.4648-36.7754Q66.2648-39.5828 66.2648-43.5721Q66.2648-47.5471 63.4648-50.3616Q60.6649-53.1762 56.6898-53.1762Q52.6714-53.1762 49.8714-50.3616Q47.0714-47.5471 47.0714-43.5721Q47.0714-39.5828 49.8714-36.7754Q52.6714-33.9679 56.6898-33.9679ZM86.449-33.9679Q90.387-33.9679 93.2201-36.7754Q96.0532-39.5828 96.0532-43.5721Q96.0532-47.5471 93.2201-50.3616Q90.387-53.1762 86.449-53.1762Q82.4598-53.1762 79.6267-50.3616Q76.7936-47.5471 76.7936-43.5721Q76.7936-39.5828 79.6267-36.7754Q82.4598-33.9679 86.449-33.9679ZM116.157-33.9679Q120.175-33.9679 122.975-36.7754Q125.775-39.5828 125.775-43.5721Q125.775-47.5471 122.975-50.3616Q120.175-53.1762 116.157-53.1762Q112.168-53.1762 109.368-50.3616Q106.568-47.5471 106.568-43.5721Q106.568-39.5828 109.368-36.7754Q112.168-33.9679 116.157-33.9679Z"/>
  </g>
  <g id="Semibold-L" transform="matrix(1 0 0 1 1957.26 1556)">
   <path d="M55.6835 35.1505Q58.2915 35.1505 60.5423 33.8887Q62.793 32.627 65.8815 29.8934L87.5861 10.8674L126.436 10.8674Q135.632 10.8674 142.137 7.3702Q148.641 3.87303 152.087-2.63157Q155.532-9.13625 155.532-18.2087L155.532-68.2659Q155.532-77.3383 152.087-83.843Q148.641-90.3476 142.137-93.8448Q135.632-97.3419 126.436-97.3419L45.5916-97.3419Q36.3955-97.3419 29.8909-93.8547Q23.3862-90.3675 19.941-83.8628Q16.4957-77.3581 16.4957-68.2659L16.4957-18.2087Q16.4957-9.11639 19.9874-2.61171Q23.4791 3.89289 29.8909 7.38013Q36.3026 10.8674 45.0345 10.8674L47.7939 10.8674L47.7939 26.2719Q47.7939 30.391 49.8981 32.7707Q52.0024 35.1505 55.6835 35.1505ZM58.6983 21.3668L58.6983 3.42647Q58.6983 0.74349 57.4932-0.357014Q56.2882-1.45743 53.8143-1.45743L46.1143-1.45743Q37.4724-1.45743 33.1464-5.88142Q28.8205-10.3054 28.8205-18.7313L28.8205-67.7432Q28.8205-76.1692 33.1464-80.5721Q37.4724-84.9752 46.1143-84.9752L125.913-84.9752Q134.495-84.9752 138.841-80.5721Q143.187-76.1692 143.187-67.7432L143.187-18.7313Q143.187-10.3054 138.841-5.88142Q134.495-1.45743 125.913-1.45743L86.9066-1.45743Q84.1873-1.45743 82.5234-0.812444Q80.8596-0.167375 78.8484 1.83109ZM56.1955-34.0519Q60.0065-34.0519 62.6943-36.7391Q65.3822-39.4264 65.3822-43.2572Q65.3822-47.0681 62.6943-49.7652Q60.0065-52.4624 56.1955-52.4624Q52.3462-52.4624 49.6583-49.7652Q46.9704-47.0681 46.9704-43.2572Q46.9704-39.4264 49.6583-36.7391Q52.3462-34.0519 56.1955-34.0519ZM86.0249-34.0519Q89.7938-34.0519 92.5119-36.7391Q95.2301-39.4264 95.2301-43.2572Q95.2301-47.0681 92.5119-49.7652Q89.7938-52.4624 86.0249-52.4624Q82.194-52.4624 79.4759-49.7652Q76.7577-47.0681 76.7577-43.2572Q76.7577-39.4264 79.4759-36.7391Q82.194-34.0519 86.0249-34.0519ZM115.792-34.0519Q119.642-34.0519 122.33-36.7391Q125.017-39.4264 125.017-43.2572Q125.017-47.0681 122.33-49.7652Q119.642-52.4624 115.792-52.4624Q111.961-52.4624 109.274-49.7652Q106.586-47.0681 106.586-43.2572Q106.586-39.4264 109.274-36.7391Q111.961-34.0519 115.792-34.0519Z"/>
  </g>
  <g id="Medium-L" transform="matrix(1 0 0 1 1660.87 1556)">
   <path d="M54.7772 34.372Q57.1342 34.372 59.1246 33.2019Q61.1151 32.0318 63.8811 29.5675L85.7392 10.3835L126.468 10.3835Q135.514 10.3835 141.865 6.98911Q148.216 3.5947 151.553-2.75601Q154.889-9.1068 154.889-18.0132L154.889-67.9752Q154.889-76.8816 151.553-83.2324Q148.216-89.5831 141.865-92.9776Q135.514-96.372 126.468-96.372L44.9167-96.372Q35.8704-96.372 29.5197-92.9896Q23.1689-89.6073 19.8323-83.2566Q16.4957-76.9058 16.4957-67.9752L16.4957-18.0132Q16.4957-9.08266 19.8586-2.73187Q23.2214 3.61884 29.5197 7.00118Q35.8178 10.3835 44.6013 10.3835L47.7302 10.3835L47.7302 26.3706Q47.7302 30.0782 49.6047 32.2251Q51.4793 34.372 54.7772 34.372ZM57.4266 22.3176L57.4266 4.18133Q57.4266 1.69405 56.339 0.676662Q55.2515-0.340657 52.9046-0.340657L45.2383-0.340657Q36.24-0.340657 31.7299-4.97217Q27.2199-9.60371 27.2199-18.3349L27.2199-67.6535Q27.2199-76.3848 31.7299-80.9934Q36.24-85.6021 45.2383-85.6021L126.146-85.6021Q135.072-85.6021 139.606-80.9934Q144.141-76.3848 144.141-67.6535L144.141-18.3349Q144.141-9.60371 139.606-4.97217Q135.072-0.340657 126.146-0.340657L85.269-0.340657Q82.7443-0.340657 81.1722 0.240998Q79.6001 0.822725 77.7402 2.68066ZM55.8207-34.1156Q59.5072-34.1156 62.1101-36.7117Q64.713-39.3077 64.713-43.0184Q64.713-46.7049 62.1101-49.313Q59.5072-51.9211 55.8207-51.9211Q52.0996-51.9211 49.4967-49.313Q46.8938-46.7049 46.8938-43.0184Q46.8938-39.3077 49.4967-36.7117Q52.0996-34.1156 55.8207-34.1156ZM85.7032-34.1156Q89.344-34.1156 91.975-36.7117Q94.606-39.3077 94.606-43.0184Q94.606-46.7049 91.975-49.313Q89.344-51.9211 85.7032-51.9211Q81.9925-51.9211 79.3616-49.313Q76.7306-46.7049 76.7306-43.0184Q76.7306-39.3077 79.3616-36.7117Q81.9925-34.1156 85.7032-34.1156ZM115.516-34.1156Q119.237-34.1156 121.84-36.7117Q124.443-39.3077 124.443-43.0184Q124.443-46.7049 121.84-49.313Q119.237-51.9211 115.516-51.9211Q111.805-51.9211 109.202-49.313Q106.599-46.7049 106.599-43.0184Q106.599-39.3077 109.202-36.7117Q111.805-34.1156 115.516-34.1156Z"/>
  </g>
  <g id="Regular-L" transform="matrix(1 0 0 1 1364.58 1556)">
   <path d="M53.5952 33.3565Q55.6247 33.3565 57.2755 32.306Q58.9265 31.2555 61.272 29.1424L83.3302 9.75239L126.51 9.75239Q135.361 9.75239 141.511 6.49204Q147.661 3.23166 150.856-2.91831Q154.051-9.06839 154.051-17.7583L154.051-67.596Q154.051-76.286 150.856-82.4361Q147.661-88.586 141.511-91.8465Q135.361-95.1068 126.51-95.1068L44.0362-95.1068Q35.1854-95.1068 29.0354-91.8613Q22.8853-88.6158 19.6905-82.4658Q16.4957-76.3157 16.4957-67.596L16.4957-17.7583Q16.4957-9.03867 19.6905-2.88859Q22.8853 3.26138 29.0354 6.5069Q35.1854 9.75239 44.0362 9.75239L47.6471 9.75239L47.6471 26.4994Q47.6471 29.6701 49.222 31.5133Q50.7969 33.3565 53.5952 33.3565ZM55.7679 23.5578L55.7679 5.16594Q55.7679 2.9339 54.8336 2.02493Q53.8993 1.11601 51.718 1.11601L44.0957 1.11601Q34.6326 1.11601 29.8823-3.78619Q25.1321-8.68845 25.1321-17.8178L25.1321-67.5365Q25.1321-76.666 29.8823-81.5429Q34.6326-86.4198 44.0957-86.4198L126.451-86.4198Q135.825-86.4198 140.605-81.5429Q145.385-76.666 145.385-67.5365L145.385-17.8178Q145.385-8.68845 140.605-3.78619Q135.825 1.11601 126.451 1.11601L83.1329 1.11601Q80.8622 1.11601 79.4097 1.61505Q77.9571 2.11416 76.2947 3.78878ZM55.3318-34.1987Q58.8561-34.1987 61.3481-36.6759Q63.8401-39.153 63.8401-42.707Q63.8401-46.2312 61.3481-48.7232Q58.8561-51.2152 55.3318-51.2152Q51.7779-51.2152 49.2859-48.7232Q46.7939-46.2312 46.7939-42.707Q46.7939-39.153 49.2859-36.6759Q51.7779-34.1987 55.3318-34.1987ZM85.2837-34.1987Q88.7572-34.1987 91.2746-36.6759Q93.7919-39.153 93.7919-42.707Q93.7919-46.2312 91.2746-48.7232Q88.7572-51.2152 85.2837-51.2152Q81.7297-51.2152 79.2124-48.7232Q76.6951-46.2312 76.6951-42.707Q76.6951-39.153 79.2124-36.6759Q81.7297-34.1987 85.2837-34.1987ZM115.155-34.1987Q118.709-34.1987 121.201-36.6759Q123.693-39.153 123.693-42.707Q123.693-46.2312 121.201-48.7232Q118.709-51.2152 115.155-51.2152Q111.601-51.2152 109.109-48.7232Q106.617-46.2312 106.617-42.707Q106.617-39.153 109.109-36.6759Q111.601-34.1987 115.155-34.1987Z"/>
  </g>
  <g id="Light-L" transform="matrix(1 0 0 1 1068.77 1556)">
   <path d="M51.3378 31.9815Q52.9363 31.9815 54.2281 31.1773Q55.5198 30.3731 57.2087 28.8551L79.6157 9.40352L126.51 9.40352Q134.643 9.40352 140.403 6.30735Q146.163 3.21115 149.204-2.54892Q152.245-8.30905 152.245-16.2807L152.245-68.2117Q152.245-76.1834 149.204-81.9435Q146.163-87.7036 140.403-90.7998Q134.643-93.896 126.51-93.896L42.2303-93.896Q34.0977-93.896 28.3376-90.8249Q22.5775-87.7539 19.5366-81.9937Q16.4957-76.2336 16.4957-68.2117L16.4957-16.2807Q16.4957-8.25882 19.5366-2.49869Q22.5775 3.26138 28.3376 6.33246Q34.0977 9.40352 42.2303 9.40352L46.7236 9.40352L46.7236 26.6636Q46.7236 29.1366 47.9702 30.559Q49.2168 31.9815 51.3378 31.9815ZM52.9564 24.5224L52.9564 5.92526Q52.9564 4.20625 52.2376 3.50255Q51.5188 2.79881 49.83 2.79881L42.3309 2.79881Q33.0523 2.79881 28.0763-2.26756Q23.1004-7.33402 23.1004-16.3813L23.1004-68.1111Q23.1004-77.1585 28.0763-82.2098Q33.0523-87.2612 42.3309-87.2612L126.41-87.2612Q135.537-87.2612 140.564-82.2098Q145.59-77.1585 145.59-68.1111L145.59-16.3813Q145.59-7.33402 140.564-2.26756Q135.537 2.79881 126.41 2.79881L79.7263 2.79881Q77.8866 2.79881 76.6803 3.22602Q75.474 3.65335 73.9962 5.04061ZM55.6602-34.4655Q58.8971-34.4655 61.1942-36.7374Q63.4912-39.0093 63.4912-42.2965Q63.4912-45.5334 61.1942-47.8305Q58.8971-50.1275 55.6602-50.1275Q52.3731-50.1275 50.076-47.8305Q47.779-45.5334 47.779-42.2965Q47.779-39.0093 50.076-36.7374Q52.3731-34.4655 55.6602-34.4655ZM84.3602-34.4655Q87.567-34.4655 89.8791-36.7374Q92.1912-39.0093 92.1912-42.2965Q92.1912-45.5334 89.8791-47.8305Q87.567-50.1275 84.3602-50.1275Q81.073-50.1275 78.7609-47.8305Q76.4488-45.5334 76.4488-42.2965Q76.4488-39.0093 78.7609-36.7374Q81.073-34.4655 84.3602-34.4655ZM112.98-34.4655Q116.267-34.4655 118.564-36.7374Q120.861-39.0093 120.861-42.2965Q120.861-45.5334 118.564-47.8305Q116.267-50.1275 112.98-50.1275Q109.693-50.1275 107.396-47.8305Q105.098-45.5334 105.098-42.2965Q105.098-39.0093 107.396-36.7374Q109.693-34.4655 112.98-34.4655Z"/>
  </g>
  <g id="Thin-L" transform="matrix(1 0 0 1 773.246 1556)">
   <path d="M48.3522 30.163Q49.3807 30.163 50.1975 29.6845Q51.0142 29.206 51.8346 28.4751L74.703 8.9421L126.51 8.9421Q133.693 8.9421 138.937 6.06307Q144.182 3.18402 147.019-2.06037Q149.856-7.30477 149.856-14.3265L149.856-69.026Q149.856-76.0477 147.019-81.2921Q144.182-86.5365 138.937-89.4155Q133.693-92.2946 126.51-92.2946L39.8418-92.2946Q32.6592-92.2946 27.4148-89.4542Q22.1704-86.614 19.333-81.3695Q16.4957-76.1251 16.4957-69.026L16.4957-14.3265Q16.4957-7.22741 19.333-1.98301Q22.1704 3.26138 27.4148 6.10175Q32.6592 8.9421 39.8418 8.9421L45.5022 8.9421L45.5022 26.8807Q45.5022 28.4309 46.3146 29.2969Q47.1269 30.163 48.3522 30.163ZM49.2379 25.798L49.2379 6.92952Q49.2379 5.88902 48.8042 5.45681Q48.3703 5.02444 47.3329 5.02444L39.9967 5.02444Q30.9624 5.02444 25.6878-0.259041Q20.4134-5.54268 20.4134-14.4813L20.4134-68.8711Q20.4134-77.8099 25.6878-83.0919Q30.9624-88.3741 39.9967-88.3741L126.355-88.3741Q135.157-88.3741 140.509-83.0919Q145.861-77.8099 145.861-68.8711L145.861-14.4813Q145.861-5.54268 140.509-0.259041Q135.157 5.02444 126.355 5.02444L75.2207 5.02444Q73.951 5.02444 73.0704 5.35666Q72.1898 5.68904 70.9564 6.69625ZM56.0945-34.8184Q58.9515-34.8184 60.9906-36.8189Q63.0298-38.8193 63.0298-41.7537Q63.0298-44.6106 60.9906-46.6498Q58.9515-48.689 56.0945-48.689Q53.1602-48.689 51.121-46.6498Q49.0818-44.6106 49.0818-41.7537Q49.0818-38.8193 51.121-36.8189Q53.1602-34.8184 56.0945-34.8184ZM83.1388-34.8184Q85.9928-34.8184 88.0334-36.8189Q90.0741-38.8193 90.0741-41.7537Q90.0741-44.6106 88.0334-46.6498Q85.9928-48.689 83.1388-48.689Q80.2045-48.689 78.1638-46.6498Q76.1232-44.6106 76.1232-41.7537Q76.1232-38.8193 78.1638-36.8189Q80.2045-34.8184 83.1388-34.8184ZM110.103-34.8184Q113.037-34.8184 115.076-36.8189Q117.115-38.8193 117.115-41.7537Q117.115-44.6106 115.076-46.6498Q113.037-48.689 110.103-48.689Q107.168-48.689 105.129-46.6498Q103.09-44.6106 103.09-41.7537Q103.09-38.8193 105.129-36.8189Q107.168-34.8184 110.103-34.8184Z"/>
  </g>
  <g id="Ultralight-L" transform="matrix(1 0 0 1 477.146 1556)">
   <path d="M46.823 29.2316Q47.5595 29.2316 48.1331 28.9199Q48.7065 28.6082 49.0821 28.2805L72.1867 8.70577L126.51 8.70577Q133.206 8.70577 138.186 5.93795Q143.167 3.17013 145.9-1.81014Q148.633-6.79038 148.633-13.3255L148.633-69.4431Q148.633-75.9782 145.9-80.9584Q143.167-85.9387 138.186-88.7065Q133.206-91.4744 126.51-91.4744L38.6184-91.4744Q31.9224-91.4744 26.9421-88.7521Q21.9619-86.0301 19.2288-81.0497Q16.4957-76.0695 16.4957-69.4431L16.4957-13.3255Q16.4957-6.69913 19.2288-1.71888Q21.9619 3.26138 26.9421 5.98358Q31.9224 8.70577 38.6184 8.70577L44.8766 8.70577L44.8766 26.9919Q44.8766 28.0694 45.4665 28.6505Q46.0564 29.2316 46.823 29.2316ZM47.3333 26.4514L47.3333 7.44389Q47.3333 6.75093 47.0456 6.45777Q46.7576 6.1644 46.0539 6.1644L38.8011 6.1644Q29.8919 6.1644 24.4644 0.769711Q19.0371-4.62517 19.0371-13.5082L19.0371-69.2604Q19.0371-78.1436 24.4644-83.5437Q29.8919-88.944 38.8011-88.944L126.327-88.944Q134.963-88.944 140.482-83.5437Q146-78.1436 146-69.2604L146-13.5082Q146-4.62517 140.482 0.769711Q134.963 6.1644 126.327 6.1644L72.9129 6.1644Q71.9353 6.1644 71.2215 6.44797Q70.5077 6.73172 69.3994 7.54427ZM56.3169-34.9991Q58.9793-34.9991 60.8864-36.8606Q62.7934-38.722 62.7934-41.4756Q62.7934-44.138 60.8864-46.0451Q58.9793-47.9521 56.3169-47.9521Q53.5633-47.9521 51.6562-46.0451Q49.7492-44.138 49.7492-41.4756Q49.7492-38.722 51.6562-36.8606Q53.5633-34.9991 56.3169-34.9991ZM82.5132-34.9991Q85.1865-34.9991 87.0881-36.8606Q88.9897-38.722 88.9897-41.4756Q88.9897-44.138 87.0881-46.0451Q85.1865-47.9521 82.5132-47.9521Q79.7596-47.9521 77.858-46.0451Q75.9563-44.138 75.9563-41.4756Q75.9563-38.722 77.858-36.8606Q79.7596-34.9991 82.5132-34.9991ZM108.629-34.9991Q111.383-34.9991 113.29-36.8606Q115.197-38.722 115.197-41.4756Q115.197-44.138 113.29-46.0451Q111.383-47.9521 108.629-47.9521Q105.875-47.9521 103.968-46.0451Q102.061-44.138 102.061-41.4756Q102.061-38.722 103.968-36.8606Q105.875-34.9991 108.629-34.9991Z"/>
  </g>
  <g id="Black-M" transform="matrix(1 0 0 1 2865.37 1126)">
   <path d="M47.1736 22.9538Q50.378 22.9538 53.3788 21.5743Q56.3795 20.1948 60.257 16.853L76.3784 2.92852L97.7844 2.92852Q105.458 2.92852 111.181-0.269498Q116.903-3.46748 120.095-9.18957Q123.288-14.9117 123.288-22.5754L123.288-62.574Q123.288-70.2378 120.095-75.9599Q116.903-81.682 111.181-84.8799Q105.458-88.078 97.7844-88.078L38.2835-88.078Q30.6095-88.078 24.8874-84.8798Q19.1653-81.6817 15.9726-75.9596Q12.7799-70.2375 12.7799-62.574L12.7799-22.5754Q12.7799-14.912 16.1154-9.18987Q19.4507-3.46779 24.8874-0.269651Q30.3239 2.92852 36.5707 2.92852L37.0511 2.92852L37.0511 11.9508Q37.0511 17.0852 39.7867 20.0195Q42.5223 22.9538 47.1736 22.9538ZM51.2571 3.90825L51.2571-9.02246Q51.2571-11.9633 49.7743-13.1865Q48.2915-14.4095 45.8699-14.4095L39.7674-14.4095Q35.0235-14.4095 32.5707-16.7933Q30.118-19.1769 30.118-24.0593L30.118-61.0902Q30.118-65.9726 32.5707-68.3534Q35.0235-70.7343 39.7674-70.7343L96.3005-70.7343Q101.045-70.7343 103.498-68.3534Q105.95-65.9726 105.95-61.0902L105.95-24.0593Q105.95-19.1769 103.498-16.7933Q101.045-14.4095 96.3005-14.4095L74.8477-14.4095Q71.8561-14.4095 70.1651-13.5987Q68.4742-12.7877 66.1767-10.5926ZM45.6347-34.0705Q49.1487-34.0705 51.6151-36.5657Q54.0815-39.0608 54.0815-42.5744Q54.0815-46.0884 51.6151-48.5833Q49.1487-51.0784 45.6347-51.0784Q42.064-51.0784 39.5975-48.5833Q37.1311-46.0884 37.1311-42.5744Q37.1311-39.0608 39.5975-36.5657Q42.064-34.0705 45.6347-34.0705ZM68.0369-34.0705Q71.5453-34.0705 74.043-36.5657Q76.5408-39.0608 76.5408-42.5744Q76.5408-46.0884 74.043-48.5833Q71.5453-51.0784 68.0369-51.0784Q64.5232-51.0784 62.0255-48.5833Q59.5277-46.0884 59.5277-42.5744Q59.5277-39.0608 62.0255-36.5657Q64.5232-34.0705 68.0369-34.0705ZM90.4338-34.0705Q94.0045-34.0705 96.471-36.5657Q98.9374-39.0608 98.9374-42.5744Q98.9374-46.0884 96.471-48.5833Q94.0045-51.0784 90.4338-51.0784Q86.9202-51.0784 84.4537-48.5833Q81.9873-46.0884 81.9873-42.5744Q81.9873-39.0608 84.4537-36.5657Q86.9202-34.0705 90.4338-34.0705Z"/>
  </g>
  <g id="Heavy-M" transform="matrix(1 0 0 1 2569 1126)">
   <path d="M46.1435 21.9476Q49.0207 21.9476 51.6634 20.6685Q54.3062 19.3894 57.7857 16.3698L74.0887 2.19457L97.8383 2.19457Q105.416 2.19457 110.965-0.866917Q116.513-3.92838 119.557-9.47695Q122.601-15.0255 122.601-22.5661L122.601-61.9558Q122.601-69.4964 119.557-75.045Q116.513-80.5935 110.965-83.655Q105.416-86.7165 97.8383-86.7165L37.543-86.7165Q29.9652-86.7165 24.4166-83.6562Q18.868-80.596 15.824-75.0474Q12.7799-69.4988 12.7799-61.9558L12.7799-22.5661Q12.7799-15.0231 15.933-9.4745Q19.0861-3.92594 24.4166-0.865695Q29.747 2.19457 36.2344 2.19457L37.143 2.19457L37.143 12.0806Q37.143 16.6769 39.5651 19.3122Q41.9872 21.9476 46.1435 21.9476ZM49.7351 5.29062L49.7351-7.9236Q49.7351-10.6475 48.4024-11.7758Q47.0697-12.904 44.7546-12.904L38.6821-12.904Q33.3027-12.904 30.5905-15.5994Q27.8785-18.2947 27.8785-23.7051L27.8785-60.8168Q27.8785-66.2272 30.5905-68.9144Q33.3027-71.6016 38.6821-71.6016L96.6992-71.6016Q102.071-71.6016 104.786-68.9144Q107.5-66.2272 107.5-60.8168L107.5-23.7051Q107.5-18.2947 104.786-15.5994Q102.071-12.904 96.6992-12.904L72.8418-12.904Q70.083-12.904 68.4924-12.1836Q66.9018-11.4631 64.8178-9.4412ZM44.9376-34.1197Q48.3053-34.1197 50.6714-36.5065Q53.0376-38.8933 53.0376-42.2634Q53.0376-45.6311 50.6714-48.0191Q48.3053-50.4071 44.9376-50.4071Q41.5239-50.4071 39.1576-48.0191Q36.7914-45.6311 36.7914-42.2634Q36.7914-38.8933 39.1576-36.5065Q41.5239-34.1197 44.9376-34.1197ZM67.6976-34.1197Q71.049-34.1197 73.4451-36.5065Q75.8413-38.8933 75.8413-42.2634Q75.8413-45.6311 73.4451-48.0191Q71.049-50.4071 67.6976-50.4071Q64.3274-50.4071 61.9313-48.0191Q59.5351-45.6311 59.5351-42.2634Q59.5351-38.8933 61.9313-36.5065Q64.3274-34.1197 67.6976-34.1197ZM90.4388-34.1197Q93.8525-34.1197 96.2188-36.5065Q98.585-38.8933 98.585-42.2634Q98.585-45.6311 96.2188-48.0191Q93.8525-50.4071 90.4388-50.4071Q87.0687-50.4071 84.7025-48.0191Q82.3363-45.6311 82.3363-42.2634Q82.3363-38.8933 84.7025-36.5065Q87.0687-34.1197 90.4388-34.1197Z"/>
  </g>
  <g id="Bold-M" transform="matrix(1 0 0 1 2272.67 1126)">
   <path d="M44.9912 20.8221Q47.5024 20.8221 49.7446 19.6552Q51.9868 18.4884 55.0212 15.8294L71.5272 1.37354L97.8986 1.37354Q105.369 1.37354 110.723-1.53522Q116.078-4.44397 118.956-9.79842Q121.833-15.1529 121.833-22.5557L121.833-61.2643Q121.833-68.667 118.956-74.0215Q116.078-79.376 110.723-82.2847Q105.369-85.1935 97.8986-85.1935L36.7147-85.1935Q29.2444-85.1935 23.89-82.2875Q18.5355-79.3815 15.6577-74.0271Q12.7799-68.6725 12.7799-61.2643L12.7799-22.5557Q12.7799-15.1474 15.7291-9.79291Q18.6782-4.43845 23.89-1.53246Q29.1017 1.37354 35.8583 1.37354L37.2458 1.37354L37.2458 12.2258Q37.2458 16.2201 39.3172 18.5211Q41.3886 20.8221 44.9912 20.8221ZM48.0325 6.837L48.0325-6.69436Q48.0325-9.1756 46.8677-10.1978Q45.7031-11.2198 43.5069-11.2198L37.468-11.2198Q31.3777-11.2198 28.3754-14.2639Q25.3733-17.3079 25.3733-23.309L25.3733-60.511Q25.3733-66.512 28.3754-69.5419Q31.3777-72.5719 37.468-72.5719L97.1453-72.5719Q103.219-72.5719 106.227-69.5419Q109.234-66.512 109.234-60.511L109.234-23.309Q109.234-17.3079 106.227-14.2639Q103.219-11.2198 97.1453-11.2198L70.5978-11.2198Q68.0996-11.2198 66.6212-10.6006Q65.1429-9.98137 63.2976-8.15322ZM44.1577-34.1747Q47.3618-34.1747 49.6159-36.4404Q51.8699-38.706 51.8699-41.9155Q51.8699-45.1195 49.6159-47.3879Q47.3618-49.6563 44.1577-49.6563Q40.9197-49.6563 38.6656-47.3879Q36.4115-45.1195 36.4115-41.9155Q36.4115-38.706 38.6656-36.4404Q40.9197-34.1747 44.1577-34.1747ZM67.318-34.1747Q70.4938-34.1747 72.7762-36.4404Q75.0587-38.706 75.0587-41.9155Q75.0587-45.1195 72.7762-47.3879Q70.4938-49.6563 67.318-49.6563Q64.1084-49.6563 61.826-47.3879Q59.5435-45.1195 59.5435-41.9155Q59.5435-38.706 61.826-36.4404Q64.1084-34.1747 67.318-34.1747ZM90.4444-34.1747Q93.6825-34.1747 95.9367-36.4404Q98.1907-38.706 98.1907-41.9155Q98.1907-45.1195 95.9367-47.3879Q93.6825-49.6563 90.4444-49.6563Q87.2349-49.6563 84.9808-47.3879Q82.7267-45.1195 82.7267-41.9155Q82.7267-38.706 84.9808-36.4404Q87.2349-34.1747 90.4444-34.1747Z"/>
  </g>
  <g id="Semibold-M" transform="matrix(1 0 0 1 1976.23 1126)">
   <path d="M44.1968 20.0461Q46.4556 20.0461 48.4217 18.9567Q50.3879 17.8673 53.1154 15.4567L69.7614 0.807521L97.9401 0.807521Q105.336 0.807521 110.557-1.99594Q115.778-4.79941 118.541-10.02Q121.304-15.2408 121.304-22.5485L121.304-60.7875Q121.304-68.0953 118.541-73.316Q115.778-78.5366 110.557-81.3401Q105.336-84.1436 97.9401-84.1436L36.1436-84.1436Q28.7476-84.1436 23.5269-81.3439Q18.3062-78.5443 15.5431-73.3236Q12.7799-68.1029 12.7799-60.7875L12.7799-22.5485Q12.7799-15.2331 15.5885-10.0124Q18.397-4.79177 23.5269-1.99212Q28.6568 0.807521 35.5989 0.807521L37.3167 0.807521L37.3167 12.3259Q37.3167 15.9052 39.1463 17.9756Q40.976 20.0461 44.1968 20.0461ZM46.8587 7.90307L46.8587-5.84693Q46.8587-8.16087 45.8098-9.10988Q44.7609-10.0588 42.6468-10.0588L36.631-10.0588Q30.0506-10.0588 26.8484-13.3432Q23.6463-16.6276 23.6463-23.0359L23.6463-60.3001Q23.6463-66.7084 26.8484-69.9746Q30.0506-73.2407 36.631-73.2407L97.4528-73.2407Q104.01-73.2407 107.22-69.9746Q110.43-66.7084 110.43-60.3001L110.43-23.0359Q110.43-16.6276 107.22-13.3432Q104.01-10.0588 97.4528-10.0588L69.0508-10.0588Q66.7322-10.0588 65.3312-9.50935Q63.9303-8.95986 62.2496-7.2653ZM43.6201-34.2127Q46.7113-34.2127 48.8881-36.3948Q51.0649-38.5768 51.0649-41.6757Q51.0649-44.7668 48.8881-46.9527Q46.7113-49.1386 43.6201-49.1386Q40.5032-49.1386 38.3263-46.9527Q36.1495-44.7668 36.1495-41.6757Q36.1495-38.5768 38.3263-36.3948Q40.5032-34.2127 43.6201-34.2127ZM67.0563-34.2127Q70.111-34.2127 72.3151-36.3948Q74.5193-38.5768 74.5193-41.6757Q74.5193-44.7668 72.3151-46.9527Q70.111-49.1386 67.0563-49.1386Q63.9575-49.1386 61.7534-46.9527Q59.5492-44.7668 59.5492-41.6757Q59.5492-38.5768 61.7534-36.3948Q63.9575-34.2127 67.0563-34.2127ZM90.4483-34.2127Q93.5653-34.2127 95.7421-36.3948Q97.9189-38.5768 97.9189-41.6757Q97.9189-44.7668 95.7421-46.9527Q93.5653-49.1386 90.4483-49.1386Q87.3495-49.1386 85.1727-46.9527Q82.9959-44.7668 82.9959-41.6757Q82.9959-38.5768 85.1727-36.3948Q87.3495-34.2127 90.4483-34.2127Z"/>
  </g>
  <g id="Medium-M" transform="matrix(1 0 0 1 1679.72 1126)">
   <path d="M43.5945 19.4578Q45.662 19.4578 47.4187 18.427Q49.1755 17.3963 51.6704 15.1742L68.4225 0.378346L97.9716 0.378346Q105.311 0.378346 110.431-2.34528Q115.55-5.06892 118.226-10.1881Q120.902-15.3074 120.902-22.5431L120.902-60.426Q120.902-67.6617 118.226-72.781Q115.55-77.9002 110.431-80.6238Q105.311-83.3475 97.9716-83.3475L35.7106-83.3475Q28.3708-83.3475 23.2516-80.6285Q18.1324-77.9094 15.4561-72.7902Q12.7799-67.671 12.7799-60.426L12.7799-22.5431Q12.7799-15.2981 15.4818-10.1788Q18.1838-5.05968 23.2516-2.34065Q28.3194 0.378346 35.4023 0.378346L37.3704 0.378346L37.3704 12.4018Q37.3704 15.6664 39.0168 17.5621Q40.6631 19.4578 43.5945 19.4578ZM45.9687 8.7114L45.9687-5.20438Q45.9687-7.39145 45.0076-8.28499Q44.0465-9.17845 41.9946-9.17845L35.9963-9.17845Q29.0443-9.17845 25.6905-12.6451Q22.3367-16.1118 22.3367-22.8288L22.3367-60.1403Q22.3367-66.8573 25.6905-70.3026Q29.0443-73.7479 35.9963-73.7479L97.6859-73.7479Q104.61-73.7479 107.973-70.3026Q111.336-66.8573 111.336-60.1403L111.336-22.8288Q111.336-16.1118 107.973-12.6451Q104.61-9.17845 97.6859-9.17845L67.8778-9.17845Q65.6954-9.17845 64.3531-8.6819Q63.0109-8.1853 61.4549-6.59204ZM43.2125-34.2415Q46.2182-34.2415 48.3364-36.3602Q50.4546-38.4789 50.4546-41.4938Q50.4546-44.4994 48.3364-46.6228Q46.2182-48.7461 43.2125-48.7461Q40.1873-48.7461 38.0691-46.6228Q35.9509-44.4994 35.9509-41.4938Q35.9509-38.4789 38.0691-36.3602Q40.1873-34.2415 43.2125-34.2415ZM66.8579-34.2415Q69.8208-34.2415 71.9655-36.3602Q74.1102-38.4789 74.1102-41.4938Q74.1102-44.4994 71.9655-46.6228Q69.8208-48.7461 66.8579-48.7461Q63.843-48.7461 61.6983-46.6228Q59.5536-44.4994 59.5536-41.4938Q59.5536-38.4789 61.6983-36.3602Q63.843-34.2415 66.8579-34.2415ZM90.4512-34.2415Q93.4764-34.2415 95.5947-36.3602Q97.7128-38.4789 97.7128-41.4938Q97.7128-44.4994 95.5947-46.6228Q93.4764-48.7461 90.4512-48.7461Q87.4364-48.7461 85.3182-46.6228Q83.2-44.4994 83.2-41.4938Q83.2-38.4789 85.3182-36.3602Q87.4364-34.2415 90.4512-34.2415Z"/>
  </g>
  <g id="Regular-M" transform="matrix(1 0 0 1 1383.27 1126)">
   <path d="M42.8089 18.6904Q44.6267 18.6904 46.1104 17.7362Q47.5941 16.782 49.7855 14.8057L66.6761-0.181447L98.0127-0.181447Q105.279-0.181447 110.266-2.80093Q115.253-5.42045 117.816-10.4073Q120.379-15.3942 120.379-22.536L120.379-59.9545Q120.379-67.0963 117.816-72.0832Q115.253-77.07 110.266-79.6896Q105.279-82.309 98.0127-82.309L35.1458-82.309Q27.8794-82.309 22.8926-79.6953Q17.9056-77.0814 15.3428-72.0945Q12.7799-67.1076 12.7799-59.9545L12.7799-22.536Q12.7799-15.3829 15.3428-10.3959Q17.9056-5.40911 22.8926-2.79526Q27.8794-0.181447 35.1458-0.181447L37.4405-0.181447L37.4405 12.5008Q37.4405 15.3549 38.8477 17.0226Q40.255 18.6904 42.8089 18.6904ZM44.8079 9.76575L44.8079-4.36627Q44.8079-6.38787 43.9612-7.20906Q43.1146-8.03017 41.144-8.03017L35.1685-8.03017Q27.7318-8.03017 24.1802-11.7346Q20.6287-15.439 20.6287-22.5587L20.6287-59.9318Q20.6287-67.0515 24.1802-70.7304Q27.7318-74.4094 35.1685-74.4094L97.99-74.4094Q105.393-74.4094 108.956-70.7304Q112.519-67.0515 112.519-59.9318L112.519-22.5587Q112.519-15.439 108.956-11.7346Q105.393-8.03017 97.99-8.03017L66.3478-8.03017Q64.343-8.03017 63.0774-7.6026Q61.8117-7.17502 60.4185-5.71387ZM42.6808-34.279Q45.5749-34.279 47.6166-36.3151Q49.6584-38.3512 49.6584-41.2566Q49.6584-44.1507 47.6166-46.1924Q45.5749-48.2342 42.6808-48.2342Q39.7754-48.2342 37.7336-46.1924Q35.6919-44.1507 35.6919-41.2566Q35.6919-38.3512 37.7336-36.3151Q39.7754-34.279 42.6808-34.279ZM66.5991-34.279Q69.4422-34.279 71.5095-36.3151Q73.5767-38.3512 73.5767-41.2566Q73.5767-44.1507 71.5095-46.1924Q69.4422-48.2342 66.5991-48.2342Q63.6937-48.2342 61.6265-46.1924Q59.5592-44.1507 59.5592-41.2566Q59.5592-38.3512 61.6265-36.3151Q63.6937-34.279 66.5991-34.279ZM90.455-34.279Q93.3605-34.279 95.4023-36.3151Q97.444-38.3512 97.444-41.2566Q97.444-44.1507 95.4023-46.1924Q93.3605-48.2342 90.455-48.2342Q87.5497-48.2342 85.5079-46.1924Q83.4661-44.1507 83.4661-41.2566Q83.4661-38.3512 85.5079-36.3151Q87.5497-34.279 90.455-34.279Z"/>
  </g>
  <g id="Light-M" transform="matrix(1 0 0 1 1087.37 1126)">
   <path d="M40.785 17.4576Q42.2165 17.4576 43.3782 16.7242Q44.5398 15.9908 46.1425 14.5481L63.3458-0.494231L98.0127-0.494231Q104.635-0.494231 109.272-2.96652Q113.91-5.43884 116.335-10.0761Q118.759-14.7134 118.759-21.2112L118.759-60.5065Q118.759-67.0043 116.335-71.6416Q113.91-76.2789 109.272-78.7512Q104.635-81.2235 98.0127-81.2235L33.5267-81.2235Q26.9042-81.2235 22.267-78.7661Q17.6297-76.3086 15.2048-71.6713Q12.7799-67.034 12.7799-60.5065L12.7799-21.2112Q12.7799-14.6837 15.2048-10.0464Q17.6297-5.40911 22.267-2.95166Q26.9042-0.494231 33.5267-0.494231L36.6125-0.494231L36.6125 12.648Q36.6125 14.8765 37.7254 16.1671Q38.8383 17.4576 40.785 17.4576ZM42.2872 10.6305L42.2872-3.6855Q42.2872-5.24715 41.6338-5.8843Q40.9803-6.52145 39.4513-6.52145L33.5862-6.52145Q26.315-6.52145 22.561-10.373Q18.8071-14.2247 18.8071-21.2707L18.8071-60.447Q18.8071-67.4931 22.561-71.3284Q26.315-75.1638 33.5862-75.1638L97.9532-75.1638Q105.135-75.1638 108.919-71.3284Q112.703-67.4931 112.703-60.447L112.703-21.2707Q112.703-14.2247 108.919-10.373Q105.135-6.52145 97.9532-6.52145L63.2936-6.52145Q61.6752-6.52145 60.6303-6.15828Q59.5854-5.79506 58.3578-4.59154ZM42.9752-34.5182Q45.6117-34.5182 47.4787-36.3703Q49.3456-38.2224 49.3456-40.8886Q49.3456-43.5251 47.4787-45.3921Q45.6117-47.259 42.9752-47.259Q40.309-47.259 38.442-45.3921Q36.575-43.5251 36.575-40.8886Q36.575-38.2224 38.442-36.3703Q40.309-34.5182 42.9752-34.5182ZM65.7712-34.5182Q68.3751-34.5182 70.2583-36.3703Q72.1416-38.2224 72.1416-40.8886Q72.1416-43.5251 70.2583-45.3921Q68.3751-47.259 65.7712-47.259Q63.1049-47.259 61.2217-45.3921Q59.3385-43.5251 59.3385-40.8886Q59.3385-38.2224 61.2217-36.3703Q63.1049-34.5182 65.7712-34.5182ZM88.5047-34.5182Q91.171-34.5182 93.038-36.3703Q94.905-38.2224 94.905-40.8886Q94.905-43.5251 93.038-45.3921Q91.171-47.259 88.5047-47.259Q85.8385-47.259 83.9716-45.3921Q82.1046-43.5251 82.1046-40.8886Q82.1046-38.2224 83.9716-36.3703Q85.8385-34.5182 88.5047-34.5182Z"/>
  </g>
  <g id="Thin-M" transform="matrix(1 0 0 1 791.724 1126)">
   <path d="M38.1082 15.8272Q39.0287 15.8272 39.7646 15.3858Q40.5004 14.9444 41.3244 14.2075L58.9414-0.907913L98.0127-0.907913Q103.784-0.907913 107.958-3.18553Q112.133-5.46316 114.376-9.63809Q116.618-13.813 116.618-19.4591L116.618-61.2365Q116.618-66.8826 114.376-71.0576Q112.133-75.2325 107.958-77.5101Q103.784-79.7878 98.0127-79.7878L31.3853-79.7878Q25.6145-79.7878 21.4396-77.5372Q17.2647-75.2866 15.0223-71.1116Q12.7799-66.9367 12.7799-61.2365L12.7799-19.4591Q12.7799-13.759 15.0223-9.58404Q17.2647-5.40911 21.4396-3.15851Q25.6145-0.907913 31.3853-0.907913L35.5175-0.907913L35.5175 12.8427Q35.5175 14.2439 36.241 15.0355Q36.9646 15.8272 38.1082 15.8272ZM38.9534 11.7742L38.9534-2.78513Q38.9534-3.73845 38.5555-4.1322Q38.1576-4.52605 37.2125-4.52605L31.4935-4.52605Q24.4413-4.52605 20.4196-8.57228Q16.3981-12.6186 16.3981-19.5673L16.3981-61.1283Q16.3981-68.0771 20.4196-72.1193Q24.4413-76.1615 31.4935-76.1615L97.9045-76.1615Q104.795-76.1615 108.87-72.1193Q112.946-68.0771 112.946-61.1283L112.946-19.5673Q112.946-12.6186 108.87-8.57228Q104.795-4.52605 97.9045-4.52605L59.2541-4.52605Q58.1468-4.52605 57.3939-4.24806Q56.641-3.96995 55.6324-3.10717ZM43.3645-34.8345Q45.6604-34.8345 47.2962-36.4433Q48.9319-38.052 48.9319-40.4019Q48.9319-42.6978 47.2962-44.3335Q45.6604-45.9693 43.3645-45.9693Q41.0146-45.9693 39.3789-44.3335Q37.7431-42.6978 37.7431-40.4019Q37.7431-38.052 39.3789-36.4433Q41.0146-34.8345 43.3645-34.8345ZM64.6761-34.8345Q66.9637-34.8345 68.6036-36.4433Q70.2435-38.052 70.2435-40.4019Q70.2435-42.6978 68.6036-44.3335Q66.9637-45.9693 64.6761-45.9693Q62.3262-45.9693 60.6863-44.3335Q59.0465-42.6978 59.0465-40.4019Q59.0465-38.052 60.6863-36.4433Q62.3262-34.8345 64.6761-34.8345ZM85.9253-34.8345Q88.2753-34.8345 89.9111-36.4433Q91.5468-38.052 91.5468-40.4019Q91.5468-42.6978 89.9111-44.3335Q88.2753-45.9693 85.9253-45.9693Q83.5754-45.9693 81.9396-44.3335Q80.3039-42.6978 80.3039-40.4019Q80.3039-38.052 81.9396-36.4433Q83.5754-34.8345 85.9253-34.8345Z"/>
  </g>
  <g id="Ultralight-M" transform="matrix(1 0 0 1 495.56 1126)">
   <path d="M36.7372 14.9921Q37.3959 14.9921 37.9137 14.7003Q38.4313 14.4085 38.8566 14.033L56.6854-1.1198L98.0127-1.1198Q103.347-1.1198 107.285-3.2977Q111.224-5.47562 113.372-9.41374Q115.521-13.3519 115.521-18.5617L115.521-61.6105Q115.521-66.8203 113.372-70.7584Q111.224-74.6965 107.285-76.8745Q103.347-79.0524 98.0127-79.0524L30.2885-79.0524Q24.9539-79.0524 21.0158-76.9077Q17.0777-74.7632 14.9288-70.8249Q12.7799-66.8868 12.7799-61.6105L12.7799-18.5617Q12.7799-13.2854 14.9288-9.34724Q17.0777-5.40911 21.0158-3.26445Q24.9539-1.1198 30.2885-1.1198L34.9566-1.1198L34.9566 12.9424Q34.9566 13.9198 35.4807 14.456Q36.0049 14.9921 36.7372 14.9921ZM37.2458 12.36L37.2458-2.32397Q37.2458-2.9657 36.9789-3.23479Q36.7117-3.50402 36.0658-3.50402L30.4216-3.50402Q23.4816-3.50402 19.3228-7.64995Q15.1641-11.796 15.1641-18.6949L15.1641-61.4773Q15.1641-68.3763 19.3228-72.5243Q23.4816-76.6725 30.4216-76.6725L97.8796-76.6725Q104.62-76.6725 108.845-72.5243Q113.071-68.3763 113.071-61.4773L113.071-18.6949Q113.071-11.796 108.845-7.64995Q104.62-3.50402 97.8796-3.50402L57.1851-3.50402Q56.3396-3.50402 55.7362-3.26965Q55.1328-3.03514 54.2364-2.34688ZM43.564-34.9966Q45.6853-34.9966 47.2027-36.4807Q48.72-37.9648 48.72-40.1527Q48.72-42.274 47.2027-43.7914Q45.6853-45.3087 43.564-45.3087Q41.3761-45.3087 39.8587-43.7914Q38.3414-42.274 38.3414-40.1527Q38.3414-37.9648 39.8587-36.4807Q41.3761-34.9966 43.564-34.9966ZM64.1152-34.9966Q66.2408-34.9966 67.7561-36.4807Q69.2713-37.9648 69.2713-40.1527Q69.2713-42.274 67.7561-43.7914Q66.2408-45.3087 64.1152-45.3087Q61.9274-45.3087 60.4121-43.7914Q58.8969-42.274 58.8969-40.1527Q58.8969-37.9648 60.4121-36.4807Q61.9274-34.9966 64.1152-34.9966ZM84.6041-34.9966Q86.7921-34.9966 88.3095-36.4807Q89.8268-37.9648 89.8268-40.1527Q89.8268-42.274 88.3095-43.7914Q86.7921-45.3087 84.6041-45.3087Q82.4163-45.3087 80.8989-43.7914Q79.3815-42.274 79.3815-40.1527Q79.3815-37.9648 80.8989-36.4807Q82.4163-34.9966 84.6041-34.9966Z"/>
  </g>
  <g id="Black-S" transform="matrix(1 0 0 1 2880.03 696)">
   <path d="M37.1641 10.6016Q39.752 10.6016 42.1934 9.50293Q44.6348 8.4043 47.7598 5.71875L60.3574-5.12109L76.6172-5.12109Q82.623-5.12109 87.1396-7.66016Q91.6562-10.1992 94.1953-14.7158Q96.7344-19.2324 96.7344-25.2383L96.7344-56.8789Q96.7344-62.8848 94.1953-67.4014Q91.6562-71.918 87.1396-74.457Q82.623-76.9961 76.6172-76.9961L30.1328-76.9961Q24.127-76.9961 19.6104-74.457Q15.0938-71.918 12.5547-67.4014Q10.0156-62.8848 10.0156-56.8789L10.0156-25.2383Q10.0156-19.2324 12.6768-14.7158Q15.3379-10.1992 19.6104-7.66016Q23.8828-5.12109 28.668-5.12109L28.9609-5.12109L28.9609 1.71484Q28.9609 5.86523 31.1826 8.2334Q33.4043 10.6016 37.1641 10.6016ZM40.4844-4.92578L40.4844-14.9844Q40.4844-17.3281 39.2881-18.3047Q38.0918-19.2812 36.1875-19.2812L31.4023-19.2812Q27.8867-19.2812 26.0312-21.0635Q24.1758-22.8457 24.1758-26.5078L24.1758-55.6094Q24.1758-59.2715 26.0312-61.0537Q27.8867-62.8359 31.4023-62.8359L75.3477-62.8359Q78.8633-62.8359 80.7188-61.0537Q82.5742-59.2715 82.5742-55.6094L82.5742-26.5078Q82.5742-22.8457 80.7188-21.0635Q78.8633-19.2812 75.3477-19.2812L59.0879-19.2812Q56.6953-19.2812 55.3525-18.6221Q54.0098-17.9629 52.1543-16.2051ZM35.9922-34.3203Q38.7754-34.3203 40.7285-36.2979Q42.6816-38.2754 42.6816-41.0586Q42.6816-43.8418 40.7285-45.8193Q38.7754-47.7969 35.9922-47.7969Q33.1602-47.7969 31.207-45.8193Q29.2539-43.8418 29.2539-41.0586Q29.2539-38.2754 31.207-36.2979Q33.1602-34.3203 35.9922-34.3203ZM53.375-34.3203Q56.1582-34.3203 58.1357-36.2979Q60.1133-38.2754 60.1133-41.0586Q60.1133-43.8418 58.1357-45.8193Q56.1582-47.7969 53.375-47.7969Q50.5918-47.7969 48.6143-45.8193Q46.6367-43.8418 46.6367-41.0586Q46.6367-38.2754 48.6143-36.2979Q50.5918-34.3203 53.375-34.3203ZM70.7578-34.3203Q73.5898-34.3203 75.543-36.2979Q77.4961-38.2754 77.4961-41.0586Q77.4961-43.8418 75.543-45.8193Q73.5898-47.7969 70.7578-47.7969Q67.9746-47.7969 66.0215-45.8193Q64.0684-43.8418 64.0684-41.0586Q64.0684-38.2754 66.0215-36.2979Q67.9746-34.3203 70.7578-34.3203Z"/>
  </g>
  <g id="Heavy-S" transform="matrix(1 0 0 1 2583.51 696)">
   <path d="M36.5418 9.8986Q38.8992 9.8986 41.0755 8.85756Q43.2519 7.81655 46.1118 5.33844L58.8247-5.70884L76.6633-5.70884Q82.6691-5.70884 87.082-8.14995Q91.4949-10.591 93.9245-15.0039Q96.3541-19.4168 96.3541-25.3996L96.3541-56.2796Q96.3541-62.2625 93.9245-66.6754Q91.4949-71.0882 87.082-73.5293Q82.6691-75.9704 76.6633-75.9704L29.7064-75.9704Q23.7006-75.9704 19.2877-73.5293Q14.8748-71.0882 12.4452-66.6754Q10.0156-62.2625 10.0156-56.2796L10.0156-25.3996Q10.0156-19.4168 12.5385-15.0039Q15.0613-10.591 19.2877-8.14995Q23.514-5.70884 28.5873-5.70884L29.1453-5.70884L29.1453 1.80704Q29.1453 5.57712 31.1365 7.73785Q33.1277 9.8986 36.5418 9.8986ZM39.5048-3.85401L39.5048-14.1316Q39.5048-16.3485 38.4122-17.2675Q37.3197-18.1864 35.4499-18.1864L30.6763-18.1864Q26.596-18.1864 24.5446-20.2164Q22.4932-22.2464 22.4932-26.3695L22.4932-55.3097Q22.4932-59.4328 24.5446-61.4571Q26.596-63.4813 30.6763-63.4813L75.6934-63.4813Q79.7737-63.4813 81.8251-61.4571Q83.8765-59.4328 83.8765-55.3097L83.8765-26.3695Q83.8765-22.2464 81.8251-20.2164Q79.7737-18.1864 75.6934-18.1864L57.7626-18.1864Q55.5198-18.1864 54.2346-17.5964Q52.9495-17.0064 51.2554-15.3638ZM35.3583-34.3318Q38.0494-34.3318 39.9391-36.2403Q41.8288-38.1486 41.8288-40.8396Q41.8288-43.5306 39.9391-45.439Q38.0494-47.3474 35.3583-47.3474Q32.6301-47.3474 30.7403-45.439Q28.8505-43.5306 28.8505-40.8396Q28.8505-38.1486 30.7403-36.2403Q32.6301-34.3318 35.3583-34.3318ZM53.1906-34.3318Q55.8701-34.3318 57.7842-36.2403Q59.6984-38.1486 59.6984-40.8396Q59.6984-43.5306 57.7842-45.439Q55.8701-47.3474 53.1906-47.3474Q50.4996-47.3474 48.5855-45.439Q46.6713-43.5306 46.6713-40.8396Q46.6713-38.1486 48.5855-36.2403Q50.4996-34.3318 53.1906-34.3318ZM71.0113-34.3318Q73.7396-34.3318 75.6294-36.2403Q77.5192-38.1486 77.5192-40.8396Q77.5192-43.5306 75.6294-45.439Q73.7396-47.3474 71.0113-47.3474Q68.3203-47.3474 66.4306-45.439Q64.5409-43.5306 64.5409-40.8396Q64.5409-38.1486 66.4306-36.2403Q68.3203-34.3318 71.0113-34.3318Z"/>
  </g>
  <g id="Bold-S" transform="matrix(1 0 0 1 2287.01 696)">
   <path d="M35.8457 9.11233Q37.9454 9.11233 39.8252 8.13574Q41.7051 7.15918 44.2686 4.91308L57.1104-6.36621L76.7149-6.36621Q82.7207-6.36621 87.0176-8.69776Q91.3145-11.0293 93.6216-15.3261Q95.9287-19.623 95.9287-25.5801L95.9287-55.6093Q95.9287-61.5664 93.6216-65.8633Q91.3145-70.1602 87.0176-72.4917Q82.7207-74.8233 76.7149-74.8233L29.2295-74.8233Q23.2237-74.8233 18.9268-72.4917Q14.6299-70.1602 12.3228-65.8633Q10.0156-61.5664 10.0156-55.6093L10.0156-25.5801Q10.0156-19.623 12.3838-15.3261Q14.752-11.0293 18.9268-8.69776Q23.1016-6.36621 28.4971-6.36621L29.3516-6.36621L29.3516 1.91016Q29.3516 5.25488 31.085 7.1836Q32.8184 9.11233 35.8457 9.11233ZM38.4092-2.65527L38.4092-13.1777Q38.4092-15.2529 37.4326-16.1075Q36.4561-16.9619 34.625-16.9619L29.8643-16.9619Q25.1524-16.9619 22.8818-19.2691Q20.6114-21.5761 20.6114-26.2148L20.6114-54.9746Q20.6114-59.6133 22.8818-61.9082Q25.1524-64.2031 29.8643-64.2031L76.0801-64.2031Q80.792-64.2031 83.0625-61.9082Q85.333-59.6133 85.333-54.9746L85.333-26.2148Q85.333-21.5761 83.0625-19.2691Q80.792-16.9619 76.0801-16.9619L56.2803-16.9619Q54.2051-16.9619 52.9844-16.4492Q51.7637-15.9366 50.25-14.4229ZM34.6494-34.3447Q37.2373-34.3447 39.0562-36.1758Q40.875-38.0069 40.875-40.5947Q40.875-43.1826 39.0562-45.0136Q37.2373-46.8448 34.6494-46.8448Q32.0372-46.8448 30.2183-45.0136Q28.3994-43.1826 28.3994-40.5947Q28.3994-38.0069 30.2183-36.1758Q32.0372-34.3447 34.6494-34.3447ZM52.9844-34.3447Q55.5479-34.3447 57.3911-36.1758Q59.2344-38.0069 59.2344-40.5947Q59.2344-43.1826 57.3911-45.0136Q55.5479-46.8448 52.9844-46.8448Q50.3965-46.8448 48.5533-45.0136Q46.71-43.1826 46.71-40.5947Q46.71-38.0069 48.5533-36.1758Q50.3965-34.3447 52.9844-34.3447ZM71.2949-34.3447Q73.9072-34.3447 75.7261-36.1758Q77.545-38.0069 77.545-40.5947Q77.545-43.1826 75.7261-45.0136Q73.9072-46.8448 71.2949-46.8448Q68.7071-46.8448 66.8882-45.0136Q65.0694-43.1826 65.0694-40.5947Q65.0694-38.0069 66.8882-36.1758Q68.7071-34.3447 71.2949-34.3447Z"/>
  </g>
  <g id="Semibold-S" transform="matrix(1 0 0 1 1990.44 696)">
   <path d="M35.3658 8.57023Q37.2877 8.57023 38.9632 7.63808Q40.6387 6.70596 42.9977 4.61982L55.9284-6.81943L76.7504-6.81943Q82.7563-6.81943 86.9731-9.07544Q91.1901-11.3315 93.4128-15.5483Q95.6354-19.7652 95.6354-25.7045L95.6354-55.1472Q95.6354-61.0865 93.4128-65.3034Q91.1901-69.5203 86.9731-71.7763Q82.7563-74.0323 76.7504-74.0323L28.9007-74.0323Q22.8948-74.0323 18.678-71.7763Q14.461-69.5203 12.2383-65.3034Q10.0156-61.0865 10.0156-55.1472L10.0156-25.7045Q10.0156-19.7652 12.2771-15.5483Q14.5387-11.3315 18.678-9.07544Q22.8172-6.81943 28.4349-6.81943L29.4937-6.81943L29.4937 1.98125Q29.4937 5.03271 31.0494 6.80147Q32.6051 8.57023 35.3658 8.57023ZM37.6538-1.82881L37.6538-12.5201Q37.6538-14.4975 36.7572-15.3077Q35.8606-16.1177 34.0562-16.1177L29.3044-16.1177Q24.157-16.1177 21.7354-18.6159Q19.3139-21.114 19.3139-26.1082L19.3139-54.7435Q19.3139-59.7377 21.7354-62.2192Q24.157-64.7008 29.3044-64.7008L76.3467-64.7008Q81.494-64.7008 83.9156-62.2192Q86.3372-59.7377 86.3372-54.7435L86.3372-26.1082Q86.3372-21.114 83.9156-18.6159Q81.494-16.1177 76.3467-16.1177L55.2583-16.1177Q53.2986-16.1177 52.1223-15.6583Q50.9461-15.199 49.5568-13.7741ZM34.1606-34.3536Q36.6774-34.3536 38.4474-36.1314Q40.2174-37.9091 40.2174-40.4259Q40.2174-42.9427 38.4474-44.7204Q36.6774-46.4982 34.1606-46.4982Q31.6284-46.4982 29.8583-44.7204Q28.0884-42.9427 28.0884-40.4259Q28.0884-37.9091 29.8583-36.1314Q31.6284-34.3536 34.1606-34.3536ZM52.8422-34.3536Q55.3257-34.3536 57.1201-36.1314Q58.9145-37.9091 58.9145-40.4259Q58.9145-42.9427 57.1201-44.7204Q55.3257-46.4982 52.8422-46.4982Q50.3254-46.4982 48.531-44.7204Q46.7366-42.9427 46.7366-40.4259Q46.7366-37.9091 48.531-36.1314Q50.3254-34.3536 52.8422-34.3536ZM71.4904-34.3536Q74.0227-34.3536 75.7927-36.1314Q77.5627-37.9091 77.5627-40.4259Q77.5627-42.9427 75.7927-44.7204Q74.0227-46.4982 71.4904-46.4982Q68.9737-46.4982 67.2037-44.7204Q65.4337-42.9427 65.4337-40.4259Q65.4337-37.9091 67.2037-36.1314Q68.9737-34.3536 71.4904-34.3536Z"/>
  </g>
  <g id="Medium-S" transform="matrix(1 0 0 1 1693.84 696)">
   <path d="M35.0019 8.15919Q36.7891 8.15919 38.3096 7.26074Q39.8301 6.3623 42.0341 4.39746L55.0322-7.16309L76.7773-7.16309Q82.7832-7.16309 86.9394-9.36182Q91.0957-11.5606 93.2544-15.7168Q95.4131-19.8731 95.4131-25.7989L95.4131-54.7968Q95.4131-60.7226 93.2544-64.8789Q91.0957-69.0351 86.9394-71.2339Q82.7832-73.4326 76.7773-73.4326L28.6514-73.4326Q22.6455-73.4326 18.4893-71.2339Q14.333-69.0351 12.1743-64.8789Q10.0156-60.7226 10.0156-54.7968L10.0156-25.7989Q10.0156-19.8731 12.1963-15.7168Q14.3769-11.5606 18.4893-9.36182Q22.6015-7.16309 28.3877-7.16309L29.6016-7.16309L29.6016 2.03516Q29.6016 4.86426 31.0225 6.51172Q32.4433 8.15919 35.0019 8.15919ZM37.0811-1.20215L37.0811-12.0215Q37.0811-13.9248 36.2451-14.7012Q35.4092-15.4775 33.625-15.4775L28.8799-15.4775Q23.4024-15.4775 20.8662-18.1206Q18.3301-20.7636 18.3301-26.0274L18.3301-54.5683Q18.3301-59.8321 20.8662-62.4551Q23.4024-65.0781 28.8799-65.0781L76.5488-65.0781Q82.0264-65.0781 84.5625-62.4551Q87.0986-59.8321 87.0986-54.5683L87.0986-26.0274Q87.0986-20.7636 84.5625-18.1206Q82.0264-15.4775 76.5488-15.4775L54.4834-15.4775Q52.6113-15.4775 51.4687-15.0586Q50.3262-14.6397 49.0312-13.2822ZM33.79-34.3603Q36.2529-34.3603 37.9858-36.0977Q39.7188-37.835 39.7188-40.2979Q39.7188-42.7607 37.9858-44.498Q36.2529-46.2354 33.79-46.2354Q31.3184-46.2354 29.5854-44.498Q27.8525-42.7607 27.8525-40.2979Q27.8525-37.835 29.5854-36.0977Q31.3184-34.3603 33.79-34.3603ZM52.7344-34.3603Q55.1572-34.3603 56.9146-36.0977Q58.6719-37.835 58.6719-40.2979Q58.6719-42.7607 56.9146-44.498Q55.1572-46.2354 52.7344-46.2354Q50.2715-46.2354 48.5142-44.498Q46.7568-42.7607 46.7568-40.2979Q46.7568-37.835 48.5142-36.0977Q50.2715-34.3603 52.7344-34.3603ZM71.6386-34.3603Q74.1103-34.3603 75.8433-36.0977Q77.5762-37.835 77.5762-40.2979Q77.5762-42.7607 75.8433-44.498Q74.1103-46.2354 71.6386-46.2354Q69.1758-46.2354 67.4429-44.498Q65.71-42.7607 65.71-40.2979Q65.71-37.835 67.4429-36.0977Q69.1758-34.3603 71.6386-34.3603Z"/>
  </g>
  <g id="Regular-S" transform="matrix(1 0 0 1 1397.28 696)">
   <path d="M34.5273 7.62305Q36.1387 7.62305 37.457 6.76855Q38.7754 5.91406 40.7773 4.10742L53.8633-7.61133L76.8125-7.61133Q82.8184-7.61133 86.8955-9.73535Q90.9727-11.8594 93.0479-15.9365Q95.123-20.0137 95.123-25.9219L95.123-54.3398Q95.123-60.248 93.0479-64.3252Q90.9727-68.4023 86.8955-70.5264Q82.8184-72.6504 76.8125-72.6504L28.3262-72.6504Q22.3203-72.6504 18.2432-70.5264Q14.166-68.4023 12.0908-64.3252Q10.0156-60.248 10.0156-54.3398L10.0156-25.9219Q10.0156-20.0137 12.0908-15.9365Q14.166-11.8594 18.2432-9.73535Q22.3203-7.61133 28.3262-7.61133L29.7422-7.61133L29.7422 2.10547Q29.7422 4.64453 30.9873 6.13379Q32.2324 7.62305 34.5273 7.62305ZM36.334-0.384766L36.334-11.3711Q36.334-13.1777 35.5771-13.9102Q34.8203-14.6426 33.0625-14.6426L28.3262-14.6426Q22.418-14.6426 19.7324-17.4746Q17.0469-20.3066 17.0469-25.9219L17.0469-54.3398Q17.0469-59.9551 19.7324-62.7627Q22.418-65.5703 28.3262-65.5703L76.8125-65.5703Q82.7207-65.5703 85.4062-62.7627Q88.0918-59.9551 88.0918-54.3398L88.0918-25.9219Q88.0918-20.3066 85.4062-17.4746Q82.7207-14.6426 76.8125-14.6426L53.4727-14.6426Q51.7148-14.6426 50.6162-14.2764Q49.5176-13.9102 48.3457-12.6406ZM33.3066-34.3691Q35.6992-34.3691 37.3838-36.0537Q39.0684-37.7383 39.0684-40.1309Q39.0684-42.5234 37.3838-44.208Q35.6992-45.8926 33.3066-45.8926Q30.9141-45.8926 29.2295-44.208Q27.5449-42.5234 27.5449-40.1309Q27.5449-37.7383 29.2295-36.0537Q30.9141-34.3691 33.3066-34.3691ZM52.5938-34.3691Q54.9375-34.3691 56.6465-36.0537Q58.3555-37.7383 58.3555-40.1309Q58.3555-42.5234 56.6465-44.208Q54.9375-45.8926 52.5938-45.8926Q50.2012-45.8926 48.4922-44.208Q46.7832-42.5234 46.7832-40.1309Q46.7832-37.7383 48.4922-36.0537Q50.2012-34.3691 52.5938-34.3691ZM71.832-34.3691Q74.2246-34.3691 75.9092-36.0537Q77.5938-37.7383 77.5938-40.1309Q77.5938-42.5234 75.9092-44.208Q74.2246-45.8926 71.832-45.8926Q69.4395-45.8926 67.7549-44.208Q66.0703-42.5234 66.0703-40.1309Q66.0703-37.7383 67.7549-36.0537Q69.4395-34.3691 71.832-34.3691Z"/>
  </g>
  <g id="Light-S" transform="matrix(1 0 0 1 1101.28 696)">
   <path d="M32.7369 6.53255Q34.0065 6.53255 35.04 5.87337Q36.0736 5.21419 37.5547 3.87956L50.9173-7.88802L76.8125-7.88802Q82.2487-7.88802 86.0166-9.88183Q89.7845-11.8757 91.7377-15.6435Q93.6907-19.4115 93.6907-24.75L93.6907-54.8281Q93.6907-60.1666 91.7377-63.9346Q89.7845-67.7024 86.0166-69.6963Q82.2487-71.6901 76.8125-71.6901L26.8939-71.6901Q21.4577-71.6901 17.6898-69.7044Q13.9219-67.7187 11.9687-63.9508Q10.0156-60.1829 10.0156-54.8281L10.0156-24.75Q10.0156-19.3952 11.9687-15.6273Q13.9219-11.8594 17.6898-9.8737Q21.4577-7.88802 26.8939-7.88802L29.0098-7.88802L29.0098 2.23568Q29.0098 4.22135 29.9945 5.37695Q30.9792 6.53255 32.7369 6.53255ZM34.1042 0.380209L34.1042-10.7689Q34.1042-12.1686 33.5182-12.7383Q32.9323-13.308 31.5651-13.308L26.9265-13.308Q21.1647-13.308 18.3001-16.2702Q15.4356-19.2324 15.4356-24.7826L15.4356-54.7955Q15.4356-60.3457 18.3001-63.2917Q21.1647-66.2376 26.9265-66.2376L76.7799-66.2376Q82.4928-66.2376 85.3737-63.2917Q88.2546-60.3457 88.2546-54.7955L88.2546-24.7826Q88.2546-19.2324 85.3737-16.2702Q82.4928-13.308 76.7799-13.308L50.7709-13.308Q49.3548-13.308 48.4515-12.9987Q47.5482-12.6895 46.5228-11.6478ZM33.567-34.5807Q35.7318-34.5807 37.2617-36.1025Q38.7917-37.6244 38.7917-39.8054Q38.7917-41.97 37.2617-43.5Q35.7318-45.03 33.567-45.03Q31.3861-45.03 29.8561-43.5Q28.3262-41.97 28.3262-39.8054Q28.3262-37.6244 29.8561-36.1025Q31.3861-34.5807 33.567-34.5807ZM51.8614-34.5807Q53.9935-34.5807 55.5397-36.1025Q57.086-37.6244 57.086-39.8054Q57.086-41.97 55.5397-43.5Q53.9935-45.03 51.8614-45.03Q49.6804-45.03 48.1341-43.5Q46.5879-41.97 46.5879-39.8054Q46.5879-37.6244 48.1341-36.1025Q49.6804-34.5807 51.8614-34.5807ZM70.1067-34.5807Q72.2878-34.5807 73.8177-36.1025Q75.3477-37.6244 75.3477-39.8054Q75.3477-41.97 73.8177-43.5Q72.2878-45.03 70.1067-45.03Q67.9258-45.03 66.3958-43.5Q64.8659-41.97 64.8659-39.8054Q64.8659-37.6244 66.3958-36.1025Q67.9258-34.5807 70.1067-34.5807Z"/>
  </g>
  <g id="Thin-S" transform="matrix(1 0 0 1 805.517 696)">
   <path d="M30.369 5.09028Q31.1866 5.09028 31.8434 4.68942Q32.5002 4.28856 33.2925 3.57819L47.0211-8.25397L76.8125-8.25397Q81.4953-8.25397 84.8542-10.0756Q88.2131-11.8972 90.0048-15.2561Q91.7964-18.615 91.7964-23.2001L91.7964-55.4739Q91.7964-60.059 90.0048-63.4179Q88.2131-66.7768 84.8542-68.5984Q81.4953-70.42 76.8125-70.42L24.9996-70.42Q20.3168-70.42 16.9579-68.6173Q13.599-66.8147 11.8073-63.4557Q10.0156-60.0968 10.0156-55.4739L10.0156-23.2001Q10.0156-18.5772 11.8073-15.2183Q13.599-11.8594 16.9579-10.0567Q20.3168-8.25397 24.9996-8.25397L28.0411-8.25397L28.0411 2.40789Q28.0411 3.66167 28.6814 4.37598Q29.3217 5.09028 30.369 5.09028ZM31.155 1.39195L31.155-9.9724Q31.155-10.834 30.7951-11.1884Q30.4352-11.5428 29.5847-11.5428L25.0752-11.5428Q19.5072-11.5428 16.4058-14.6772Q13.3044-17.8117 13.3044-23.2757L13.3044-55.3983Q13.3044-60.8624 16.4058-63.9913Q19.5072-67.1202 25.0752-67.1202L76.7369-67.1202Q82.1915-67.1202 85.3306-63.9913Q88.4698-60.8624 88.4698-55.3983L88.4698-23.2757Q88.4698-17.8117 85.3306-14.6772Q82.1915-11.5428 76.7369-11.5428L47.1975-11.5428Q46.2335-11.5428 45.5885-11.3089Q44.9435-11.0749 44.1119-10.3347ZM33.9115-34.8606Q35.7748-34.8606 37.1003-36.1671Q38.4257-37.4737 38.4257-39.3748Q38.4257-41.2382 37.1003-42.5636Q35.7748-43.8891 33.9115-43.8891Q32.0104-43.8891 30.6849-42.5636Q29.3595-41.2382 29.3595-39.3748Q29.3595-37.4737 30.6849-36.1671Q32.0104-34.8606 33.9115-34.8606ZM50.8927-34.8606Q52.745-34.8606 54.0759-36.1671Q55.4069-37.4737 55.4069-39.3748Q55.4069-41.2382 54.0759-42.5636Q52.745-43.8891 50.8927-43.8891Q48.9915-43.8891 47.6606-42.5636Q46.3296-41.2382 46.3296-39.3748Q46.3296-37.4737 47.6606-36.1671Q48.9915-34.8606 50.8927-34.8606ZM67.8249-34.8606Q69.7261-34.8606 71.0516-36.1671Q72.3771-37.4737 72.3771-39.3748Q72.3771-41.2382 71.0516-42.5636Q69.7261-43.8891 67.8249-43.8891Q65.9238-43.8891 64.5984-42.5636Q63.2729-41.2382 63.2729-39.3748Q63.2729-37.4737 64.5984-36.1671Q65.9238-34.8606 67.8249-34.8606Z"/>
  </g>
  <g id="Ultralight-S" transform="matrix(1 0 0 1 509.29 696)">
   <path d="M29.1562 4.35156Q29.7422 4.35156 30.2061 4.08301Q30.6699 3.81445 31.1094 3.42383L45.0254-8.44141L76.8125-8.44141Q81.1094-8.44141 84.2588-10.1748Q87.4082-11.9082 89.1172-15.0576Q90.8262-18.207 90.8262-22.4062L90.8262-55.8047Q90.8262-60.0039 89.1172-63.1533Q87.4082-66.3027 84.2588-68.0361Q81.1094-69.7695 76.8125-69.7695L24.0293-69.7695Q19.7324-69.7695 16.583-68.0605Q13.4336-66.3516 11.7246-63.2021Q10.0156-60.0527 10.0156-55.8047L10.0156-22.4062Q10.0156-18.1582 11.7246-15.0088Q13.4336-11.8594 16.583-10.1504Q19.7324-8.44141 24.0293-8.44141L27.5449-8.44141L27.5449 2.49609Q27.5449 3.375 28.0088 3.86328Q28.4727 4.35156 29.1562 4.35156ZM29.6445 1.91016L29.6445-9.56445Q29.6445-10.1504 29.4004-10.3945Q29.1562-10.6387 28.5703-10.6387L24.127-10.6387Q18.6582-10.6387 15.4355-13.8613Q12.2129-17.084 12.2129-22.5039L12.2129-55.707Q12.2129-61.127 15.4355-64.3496Q18.6582-67.5723 24.127-67.5723L76.7148-67.5723Q82.0371-67.5723 85.3086-64.3496Q88.5801-61.127 88.5801-55.707L88.5801-22.5039Q88.5801-17.084 85.3086-13.8613Q82.0371-10.6387 76.7148-10.6387L45.3672-10.6387Q44.6348-10.6387 44.1221-10.4434Q43.6094-10.248 42.877-9.66211ZM34.0879-35.0039Q35.7969-35.0039 37.0176-36.2002Q38.2383-37.3965 38.2383-39.1543Q38.2383-40.8633 37.0176-42.084Q35.7969-43.3047 34.0879-43.3047Q32.3301-43.3047 31.1094-42.084Q29.8887-40.8633 29.8887-39.1543Q29.8887-37.3965 31.1094-36.2002Q32.3301-35.0039 34.0879-35.0039ZM50.3965-35.0039Q52.1055-35.0039 53.3262-36.2002Q54.5469-37.3965 54.5469-39.1543Q54.5469-40.8633 53.3262-42.084Q52.1055-43.3047 50.3965-43.3047Q48.6387-43.3047 47.418-42.084Q46.1973-40.8633 46.1973-39.1543Q46.1973-37.3965 47.418-36.2002Q48.6387-35.0039 50.3965-35.0039ZM66.6562-35.0039Q68.4141-35.0039 69.6348-36.2002Q70.8555-37.3965 70.8555-39.1543Q70.8555-40.8633 69.6348-42.084Q68.4141-43.3047 66.6562-43.3047Q64.8984-43.3047 63.6777-42.084Q62.457-40.8633 62.457-39.1543Q62.457-37.3965 63.6777-36.2002Q64.8984-35.0039 66.6562-35.0039Z"/>
  </g>
 </g>
</svg>
